<?xml version="1.0" encoding="utf-8"?>
<!-- Generator: Adobe Illustrator 19.0.0, SVG Export Plug-In . SVG Version: 6.00 Build 0)  -->
<svg version="1.1" id="Capa_1" xmlns="http://www.w3.org/2000/svg" xmlns:xlink="http://www.w3.org/1999/xlink" x="0px" y="0px"
	 viewBox="0 0 552.7 426" style="enable-background:new 0 0 552.7 426;" xml:space="preserve">
<style type="text/css">
	.st0{fill:#212731;}
	.st1{fill:#5190CD;}
	.st2{fill:none;stroke:#F2D433;stroke-width:2;stroke-miterlimit:10;}
	.st3{fill:#F2D433;}
</style>
<path id="XMLID_1681_" class="st0" d="M479.3,268.9H40.7c-6.3,0-11.3-5.1-11.3-11.3V173c0-6.3,5.1-11.3,11.3-11.3h438.7
	c6.3,0,11.3,5.1,11.3,11.3v84.5C490.7,263.8,485.6,268.9,479.3,268.9z"/>
<path id="XMLID_2546_" class="st1" d="M187.9,254.9h-18.1c-0.4-2.1-0.7-4.3-0.7-6.8c-3.4,5.2-8.6,7.7-15.5,7.7
	c-5.7,0-10-1.5-12.8-4.4c-2.8-2.9-4.3-6.3-4.3-10c0-5.1,2.3-9.2,7-12.4c4.6-3.2,12.9-5,24.7-5.7v-1.1c0-2.1-0.5-3.5-1.4-4.2
	c-1-0.7-2.4-1-4.3-1c-4.4,0-6.8,1.8-7.3,5.3l-17.3-1.6c2.5-10.1,10.9-15.2,25.2-15.2c3.9,0,7.5,0.4,10.7,1.2c3.3,0.8,5.8,2,7.7,3.6
	c1.9,1.6,3.2,3.4,3.8,5.2c0.6,1.8,1,5.4,1,10.6v19.3C186.4,249.1,186.9,252.3,187.9,254.9z M168.2,232.2c-8.1,0.9-12.1,3.4-12.1,7.7
	c0,2.9,1.6,4.4,4.8,4.4c2,0,3.8-0.6,5.2-1.8c1.4-1.2,2.1-3.9,2.1-8V232.2z"/>
<path id="XMLID_2516_" class="st1" d="M246.2,206.5l-14.6,16.6l16.3,31.7h-19.6l-9.1-19.4l-5.2,6v13.3h-17.8V190H214v26.2
	c0,0.7,0,3.6-0.1,8.7c1.1-1.6,2.3-3.1,3.5-4.4l12.1-14H246.2z"/>
<path id="XMLID_2479_" class="st1" d="M282.6,237.5l17.7,1.2c-1,4.8-3.7,8.8-8,12.1c-4.3,3.3-10.1,5-17.4,5
	c-8.1,0-14.6-2.4-19.5-7.1c-4.8-4.7-7.3-10.5-7.3-17.5c0-7.2,2.4-13.3,7.2-18.3c4.8-5,11.2-7.5,19.2-7.5c7.7,0,14,2.3,18.8,7
	c4.8,4.7,7.2,11.1,7.2,19.2c0,0.7,0,1.6,0,2.8H268c0.1,3,0.6,5.3,1.6,6.8c1,1.5,2.9,2.2,5.8,2.2
	C279.5,243.5,281.9,241.5,282.6,237.5z M281.4,225c0-3.3-0.7-5.5-2-6.6c-1.3-1.1-2.9-1.7-4.8-1.7c-4.5,0-6.7,2.8-6.7,8.3H281.4z"/>
<path id="XMLID_2467_" class="st1" d="M316.7,198.5c-2.5,0-4.6-0.8-6.2-2.3c-1.6-1.5-2.4-3.4-2.4-5.5c0-2.2,0.8-4.1,2.4-5.5
	c1.6-1.4,3.7-2.1,6.2-2.1c2.6,0,4.7,0.7,6.3,2.1c1.6,1.4,2.4,3.3,2.4,5.5c0,2.3-0.8,4.2-2.4,5.6
	C321.4,197.8,319.3,198.5,316.7,198.5z"/>
<rect id="XMLID_2457_" x="309.1" y="206.2" class="st1" width="15" height="48.7"/>
<path id="XMLID_2436_" class="st1" d="M386.1,199.2h-19.4v55.7h-15.4v-55.7h-19.3v-12.5h54.2V199.2z"/>
<path id="XMLID_2414_" class="st1" d="M131.2,187.8v64.9h-18.5v-46.4l-12,46.4H88.1l-12.5-46.4v46.4H60.6v-64.9h26l9.4,34.5l9-34.5
	H131.2z"/>
<g id="XMLID_68_">
	<g id="XMLID_2381_">
		<g id="XMLID_80_">
			<path id="XMLID_95_" class="st2" d="M456.5,254.4h-53c-4.7,0-8.5-3.8-8.5-8.5V196c0-4.7,3.8-8.5,8.5-8.5h53
				c4.7,0,8.5,3.8,8.5,8.5v49.9C465,250.5,461.2,254.4,456.5,254.4z"/>
		</g>
	</g>
	<g id="XMLID_2076_">
		<g id="XMLID_122_">
			<g id="XMLID_124_">
				<path id="XMLID_128_" class="st3" d="M449.5,203.8c0.5,0,0.9,0.4,0.9,0.9v19.7c0,0.5-0.4,0.9-0.9,0.9s-0.9-0.4-0.9-0.9v-19.6
					C448.6,204.2,449,203.8,449.5,203.8z"/>
			</g>
		</g>
	</g>
	<g id="XMLID_1889_">
		<g id="XMLID_130_">
			<g id="XMLID_132_">
				<path id="XMLID_133_" class="st3" d="M425.6,228H445c0.5,0,0.9,0.4,0.9,0.9s-0.4,0.9-0.9,0.9h-19.3c-0.5,0-0.9-0.4-0.9-0.9
					C424.8,228.4,425.2,228,425.6,228z"/>
			</g>
		</g>
	</g>
	<g id="XMLID_1872_">
		<g id="XMLID_135_">
			<g id="XMLID_136_">
				<path id="XMLID_141_" class="st3" d="M420.9,203.8c0.5,0,0.9,0.4,0.9,0.9v19.7c0,0.5-0.4,0.9-0.9,0.9s-0.9-0.4-0.9-0.9v-19.6
					C420,204.2,420.4,203.8,420.9,203.8z"/>
			</g>
		</g>
	</g>
	<g id="XMLID_1860_">
		<g id="XMLID_142_">
			<g id="XMLID_143_">
				<path id="XMLID_144_" class="st3" d="M425.6,199.4H445c0.5,0,0.9,0.4,0.9,0.9c0,0.5-0.4,0.9-0.9,0.9h-19.4
					c-0.5,0-0.9-0.4-0.9-0.9C424.7,199.8,425.1,199.4,425.6,199.4z"/>
			</g>
		</g>
	</g>
	<g id="XMLID_1844_">
		<g id="XMLID_161_">
			<g id="XMLID_162_">
				<path id="XMLID_163_" class="st3" d="M444.3,200.3c0,2.9,2.3,5.2,5.2,5.2s5.2-2.3,5.2-5.2c0-2.9-2.3-5.2-5.2-5.2
					S444.3,197.4,444.3,200.3z M446,200.3c0-1.9,1.6-3.5,3.5-3.5s3.5,1.6,3.5,3.5c0,1.9-1.6,3.5-3.5,3.5S446,202.2,446,200.3z"/>
			</g>
		</g>
	</g>
	<g id="XMLID_1676_">
		<g id="XMLID_168_">
			<g id="XMLID_184_">
				<path id="XMLID_200_" class="st3" d="M415.7,200.3c0,2.9,2.3,5.2,5.2,5.2s5.2-2.3,5.2-5.2c0-2.9-2.3-5.2-5.2-5.2
					S415.7,197.4,415.7,200.3z M417.4,200.3c0-1.9,1.6-3.5,3.5-3.5s3.5,1.6,3.5,3.5c0,1.9-1.6,3.5-3.5,3.5S417.4,202.2,417.4,200.3z
					"/>
			</g>
		</g>
	</g>
	<g id="XMLID_1660_">
		<g id="XMLID_204_">
			<g id="XMLID_205_">
				<path id="XMLID_206_" class="st3" d="M444.3,228.9c0,2.9,2.3,5.2,5.2,5.2s5.2-2.3,5.2-5.2s-2.3-5.2-5.2-5.2
					S444.3,226,444.3,228.9z M446,228.9c0-1.9,1.6-3.5,3.5-3.5s3.5,1.6,3.5,3.5c0,1.9-1.6,3.5-3.5,3.5S446,230.8,446,228.9z"/>
			</g>
		</g>
	</g>
	<g id="XMLID_1647_">
		<g id="XMLID_210_">
			<g id="XMLID_211_">
				<path id="XMLID_212_" class="st3" d="M415.7,228.9c0,2.9,2.3,5.2,5.2,5.2s5.2-2.3,5.2-5.2s-2.3-5.2-5.2-5.2
					S415.7,226,415.7,228.9z M417.4,228.9c0-1.9,1.6-3.5,3.5-3.5s3.5,1.6,3.5,3.5c0,1.9-1.6,3.5-3.5,3.5S417.4,230.8,417.4,228.9z"
					/>
			</g>
		</g>
	</g>
	<g id="XMLID_1640_">
		<g id="XMLID_186_">
			<g id="XMLID_187_">
				<path id="XMLID_188_" class="st3" d="M439.1,215.4c0.5,0,0.9,0.4,0.9,0.9v19.4c0,0.5-0.4,0.9-0.9,0.9c-0.5,0-0.9-0.4-0.9-0.9
					v-19.4C438.2,215.8,438.6,215.4,439.1,215.4z"/>
			</g>
		</g>
	</g>
	<g id="XMLID_1633_">
		<g id="XMLID_190_">
			<g id="XMLID_191_">
				<path id="XMLID_192_" class="st3" d="M415.1,239.3h19.4c0.5,0,0.9,0.4,0.9,0.9s-0.4,0.9-0.9,0.9h-19.4c-0.5,0-0.9-0.4-0.9-0.9
					S414.6,239.3,415.1,239.3z"/>
			</g>
		</g>
	</g>
	<g id="XMLID_1622_">
		<g id="XMLID_194_">
			<g id="XMLID_195_">
				<path id="XMLID_196_" class="st3" d="M410.5,215.3c0.5,0,0.9,0.4,0.9,0.9v19.4c0,0.5-0.4,0.9-0.9,0.9s-0.9-0.4-0.9-0.9v-19.4
					C409.6,215.7,410,215.3,410.5,215.3z"/>
			</g>
		</g>
	</g>
	<g id="XMLID_1611_">
		<g id="XMLID_197_">
			<g id="XMLID_198_">
				<path id="XMLID_199_" class="st3" d="M415.1,210.7h19.4c0.5,0,0.9,0.4,0.9,0.9c0,0.5-0.4,0.9-0.9,0.9h-19.4
					c-0.5,0-0.9-0.4-0.9-0.9C414.2,211.1,414.6,210.7,415.1,210.7z"/>
			</g>
		</g>
	</g>
	<g id="XMLID_1483_">
		<g id="XMLID_216_">
			<g id="XMLID_217_">
				<path id="XMLID_218_" class="st3" d="M433.9,211.6c0,2.9,2.3,5.2,5.2,5.2c2.9,0,5.2-2.3,5.2-5.2c0-2.9-2.3-5.2-5.2-5.2
					C436.2,206.4,433.9,208.7,433.9,211.6z M435.6,211.6c0-1.9,1.6-3.5,3.5-3.5c1.9,0,3.5,1.6,3.5,3.5c0,1.9-1.6,3.5-3.5,3.5
					C437.2,215,435.6,213.5,435.6,211.6z"/>
			</g>
		</g>
	</g>
	<g id="XMLID_1464_">
		<g id="XMLID_225_">
			<g id="XMLID_226_">
				<path id="XMLID_246_" class="st3" d="M405.3,211.6c0,2.9,2.3,5.2,5.2,5.2s5.2-2.3,5.2-5.2c0-2.9-2.3-5.2-5.2-5.2
					S405.3,208.7,405.3,211.6z M407,211.6c0-1.9,1.6-3.5,3.5-3.5s3.5,1.6,3.5,3.5c0,1.9-1.6,3.5-3.5,3.5S407,213.5,407,211.6z"/>
			</g>
		</g>
	</g>
	<g id="XMLID_1449_">
		<g id="XMLID_250_">
			<g id="XMLID_251_">
				<path id="XMLID_252_" class="st3" d="M433.9,240.1c0,2.9,2.3,5.2,5.2,5.2c2.9,0,5.2-2.3,5.2-5.2s-2.3-5.2-5.2-5.2
					C436.2,234.9,433.9,237.3,433.9,240.1z M435.6,240.1c0-1.9,1.6-3.5,3.5-3.5c1.9,0,3.5,1.6,3.5,3.5c0,1.9-1.6,3.5-3.5,3.5
					C437.2,243.6,435.6,242,435.6,240.1z"/>
			</g>
		</g>
	</g>
	<g id="XMLID_1432_">
		<g id="XMLID_255_">
			<g id="XMLID_256_">
				<path id="XMLID_257_" class="st3" d="M405.3,240.1c0,2.9,2.3,5.2,5.2,5.2s5.2-2.3,5.2-5.2s-2.3-5.2-5.2-5.2
					S405.3,237.3,405.3,240.1z M407,240.1c0-1.9,1.6-3.5,3.5-3.5s3.5,1.6,3.5,3.5c0,1.9-1.6,3.5-3.5,3.5S407,242,407,240.1z"/>
			</g>
		</g>
	</g>
	<g id="XMLID_1419_">
		<g id="XMLID_228_">
			<g id="XMLID_229_">
				<path id="XMLID_230_" class="st3" d="M413.4,236l4.3-4.3c0.3-0.3,0.9-0.3,1.2,0c0.3,0.3,0.3,0.9,0,1.2l-4.3,4.3
					c-0.2,0.2-0.4,0.3-0.6,0.3s-0.4-0.1-0.6-0.3C413,236.9,413,236.4,413.4,236z"/>
			</g>
		</g>
	</g>
	<g id="XMLID_1361_">
		<g id="XMLID_232_">
			<g id="XMLID_233_">
				<path id="XMLID_234_" class="st3" d="M441.9,236l4.3-4.3c0.3-0.3,0.9-0.3,1.2,0c0.3,0.3,0.3,0.9,0,1.2l-4.3,4.3
					c-0.2,0.2-0.4,0.3-0.6,0.3s-0.4-0.1-0.6-0.3C441.6,236.9,441.6,236.4,441.9,236z"/>
			</g>
		</g>
	</g>
	<g id="XMLID_1260_">
		<g id="XMLID_237_">
			<g id="XMLID_238_">
				<path id="XMLID_242_" class="st3" d="M413.4,207.5l4.3-4.3c0.3-0.3,0.9-0.3,1.2,0c0.3,0.3,0.3,0.9,0,1.2l-4.3,4.3
					c-0.2,0.2-0.4,0.3-0.6,0.3s-0.4-0.1-0.6-0.3C413,208.4,413,207.8,413.4,207.5z"/>
			</g>
		</g>
	</g>
	<g id="XMLID_946_">
		<g id="XMLID_243_">
			<g id="XMLID_244_">
				<path id="XMLID_245_" class="st3" d="M441.9,207.5l4.3-4.3c0.3-0.3,0.9-0.3,1.2,0c0.3,0.3,0.3,0.9,0,1.2l-4.3,4.3
					c-0.2,0.2-0.4,0.3-0.6,0.3s-0.4-0.1-0.6-0.3C441.6,208.4,441.6,207.8,441.9,207.5z"/>
			</g>
		</g>
	</g>
	<path id="XMLID_677_" class="st3" d="M394.3,259.5c-2.4,0-4.4-0.7-6-2.2c-1.6-1.5-2.4-3.3-2.4-5.4c0-2.2,0.8-4,2.5-5.4
		c1.6-1.4,3.7-2.1,6.1-2.1c2.5,0,4.5,0.7,6.1,2.1c1.6,1.4,2.4,3.2,2.4,5.4c0,2.2-0.8,4.1-2.4,5.5C399,258.8,396.9,259.5,394.3,259.5
		z"/>
</g>
</svg>
