<?xml version="1.0" encoding="utf-8"?>
<!-- Generator: Adobe Illustrator 19.0.0, SVG Export Plug-In . SVG Version: 6.00 Build 0)  -->
<svg version="1.1" id="Capa_1" xmlns="http://www.w3.org/2000/svg" xmlns:xlink="http://www.w3.org/1999/xlink" x="0px" y="0px"
	 viewBox="0 0 790 790" style="enable-background:new 0 0 790 790;" xml:space="preserve">
<style type="text/css">
	.st0{fill:#FFFFFF;}
	.st1{fill:#222E43;}
</style>
<path id="XMLID_245_" class="st0" d="M594.3,377.2c0.7-0.4,1.7-0.6,2.6-0.8c1-0.2,1.9-0.4,2.8-0.6c0.8,0.4,1.4,1,2.1,1.6
	c0.9,0.2,1.5,0.7,2.4,0.7c4.2,0.3,8.6-4,6.6-8.6c-0.2-0.4-0.3-0.9-0.5-1.2c-0.5-0.8-2.1-1.7-3.3-2.1c-0.3-0.1-0.8-0.2-1.2-0.3
	c-0.7-0.1-2,0.1-2.7,0.3c-0.3,0.2-0.8,0.5-1.1,0.7c-1.2,0.6-1.9,1.7-2.5,2.8c-0.2,0.6-0.4,1.1-0.6,1.8c-0.2,0.8,0.3,1.5,0,2.3
	c-2.4,0.4-5.1,0.8-7.5,1.4c-0.7,0.2-1.8,0.7-2.3,0.7c-0.7-0.1-2.5-1-2.5-1.4c-0.1-0.4,0.5-1.6,0.7-2.2c0.5-1.7,0.9-2.9,1.3-4.4
	c0.3-0.7,0.3-1.8,0.9-2c0.4-0.1,1,0.2,1.5,0.2c0.4,0,0.9,0,1.3-0.1c0.2,0,0.3-0.2,0.5-0.3c0.2-0.1,0.5,0,0.7-0.1
	c0.4-0.1,0.7-0.5,1.2-0.8c1.1-0.8,2.1-2.2,2.4-3.7c0.2-1.9-0.5-3.7-1.4-4.6c-1.2-1.3-3.5-2.4-5.7-1.9c-0.3,0.1-0.9,0.2-1.2,0.3
	c-0.2,0.1-0.5,0.4-0.8,0.6c-0.8,0.6-1.6,1.4-2,2.2c-0.6,1.5-0.4,3.7,0.1,5c0.3,0.6,0.9,1.2,1,1.8c0.3,1.2-0.1,2.2-0.5,3.1
	c-0.2,0.6-0.4,1.4-0.9,1.7c-0.9-0.4-1.5-1.3-2-2c-0.6-0.7-1.3-1.4-1.9-2.2c-0.5-0.7-1.1-1.5-1.7-2.4c-0.5-0.9-1.2-1.9-1.2-2.8
	c-0.2-2,0.5-3.6,1.2-4.5c0.5-0.6,1.2-0.9,1.7-1.7c1.4-2,1.2-4.8-0.1-6.8c-0.5-0.7-1.2-1-1.8-1.7c-1.7-0.6-3.3-0.9-5-0.4
	c-1,0.3-2.3,1.1-2.9,2c-0.4,0.4-0.7,1-0.9,1.5c-1.4,3,0.2,6.4,2.8,7.7c0.6,0.3,1.4,0.2,1.9,0.6c0,1.9,0.4,3.7,0.9,5.1
	c1.3,3.4,3.2,6.5,5,9.2c0.4,0.6,1,1.1,0.9,1.8c-1.6-0.4-3.1-1.1-4.7-1.6c-0.6-0.2-1.2-0.3-1.5-0.6c-0.3-0.3-0.3-1-0.5-1.5
	c-0.2-0.5-0.4-1.1-0.6-1.6c-0.3-0.6-1.5-1.9-1.4-2.7c0-0.5,0.5-1,0.6-1.4c0.3-1,0.1-2.3-0.5-3.2c-1.2-1.9-4.3-2.7-6.3-1.1
	c-0.5,0.4-1,1.2-1.3,1.9c-0.6,1.4-0.2,3,0.5,4c0.7,1,2,1.7,3.4,1.7c0.9,0,1.6-0.5,2.7-0.6c0.3,0.4,0.5,1.1,0.8,1.7
	c0.2,0.6,0.5,1.3,0.3,2c-1.1-0.1-2.3-0.4-3.4-0.6c-3.1-0.7-6-0.9-9.3-1.1c-0.6-0.1-1.3,0-1.9-0.2c-0.2-0.7,0.3-1.4,0.6-2
	c1-1.8,2.9-3.2,2.9-5.4c0-1.4-0.7-2.7-1.7-3.5c-0.4-0.3-0.9-0.4-1.3-0.9c-1-0.2-1.9-0.6-2.9-0.5c-1.1,0.2-1.9,0.7-2.6,1.3
	c-1.2,1.1-2.6,3.1-2.7,4.8c0,2.3,2.2,3.8,3.8,4.7c0.5,0.7,1.9,0.6,2.1,1.7c-0.8,0.2-1.6,0.3-2.3,0.4c-2.5,0.4-4.8,0.8-7,1.5
	c-2.9,0.9-5.6,2-8.3,3.1c-0.9,0.4-1.8,0.7-2.7,1.1c-0.8,0.4-1.6,1-2.7,1c-0.3-0.6,0.1-1.2,0.3-1.9c0.2-1.3,0.3-2.9,0.5-4.2
	c0.1-0.7,0.5-1.3,0.2-1.9c-0.5-0.2-1.4,0.2-2.1,0.3c-0.8,0.2-1.7,0.3-2.2,0.7c-1.8,11-6.2,20.1-12.5,26.9c-1,1.2-2.1,2.3-3.1,3.3
	c-0.6,0.6-1.3,1-1.8,1.5c-0.3,0.3-0.5,0.6-0.8,0.8c-0.3,0.3-0.7,0.3-1.1,0.6c-0.4,0.3-0.6,0.7-0.9,0.9c-0.3,0.3-0.8,0.4-1.1,0.7
	c-0.8,0.5-1.5,1.1-2.2,1.6c-0.4,0.3-0.7,0.5-1.1,0.7c-1.2,0.7-2.4,1.4-3.7,2.1c-0.6,0.3-1.3,0.7-1.8,1c-0.2,0.1-0.5,0.1-0.7,0.2
	c-0.4,0.2-0.8,0.5-1.2,0.7c-0.5,0.2-1,0.3-1.3,0.6c-0.1,0-0.1,0.2-0.2,0.2c-0.1,0.1-0.3,0-0.5,0.1c-1.1,0.5-2.2,1-3.3,1.4
	c-0.4,0.2-0.8,0.5-1.3,0.7c-0.3,0.1-0.6,0.1-0.9,0.2c-0.2,0.1-0.5,0.1-0.7,0.2c-1.1,0.5-2.4,1.1-3.5,1.6c-0.3,0.1-0.5,0.1-0.9,0.2
	c-2.1,0.6-4.3,1.1-6.6,1.7c-3.3,0.9-7.1,1.4-10.3,2c-0.3,0.1-0.6,0.2-0.9,0.2c-0.3,0.1-0.8,0.2-0.9,0.2c-0.7,0.1-1.3-0.1-2-0.1
	c-0.5,0-1.4,0.1-2.2,0.2c-0.7,0.1-1.4,0.5-1.9,0.2c-0.3-0.2-0.6-1.3-0.8-1.8c-0.1-0.6-0.1-1-0.2-1.6c-0.2-0.9-0.3-1.9-0.5-2.9
	c-0.1-0.4-0.3-0.8-0.3-1.2c-0.1-0.4,0-0.7,0-1.1c-0.1-0.9-0.4-2-0.4-2.9c-0.1-1.7-0.2-3.2-0.2-4.6c0-0.5-0.1-1-0.1-1.4
	c0-1.8,0.2-3.2,0.3-4.8c0.1-1,0-2.2,0.2-3.2c0.1-1.1,0.4-2.3,0.6-3.4c0.3-1.6,0.7-3.3,0.9-4.5c0.2-0.8,0.4-1.3,0.5-1.8
	c0.5-1.5,0.8-2.9,1.3-4.2c0.3-0.6,0.4-1.1,0.6-1.6c0.2-0.4,0.5-0.7,0.8-1.1c0.7-1.3,1.3-2.5,1.9-3.7c0.4-0.7,0.7-1.6,1.3-2.4
	c0.3-0.3,0.6-0.6,0.9-1c0.4-0.6,0.6-1,0.9-1c0.6-0.2,1,0.3,1.5,0.4c0.3,0.1,0.5,0.1,0.7,0.2c0.2,0.1,0.5,0.2,0.7,0.3
	c0.7,0.3,2.1,1,2.5,1.5c0.3,0.5,0.9,1.9,0.9,2.7c0,0.4-0.1,0.8-0.1,1c-0.2,1.4-0.5,2.1-1,3.2c-0.4,1-0.8,2.1-1.4,3
	c-0.2,0.3-0.4,0.6-0.5,0.9c-0.3,0.5-0.8,0.8-1,1.2c-0.1,0.2-0.1,0.4-0.2,0.5c-0.4,0.5-1,0.9-1.5,1.3c-0.4,0.3-0.7,0.7-1,1
	c-0.1,0.1-0.4,0.1-0.5,0.3c-0.4,0.4-0.8,1-1.2,1.5c-0.5,0.5-1,1-1.4,1.5c-0.3,0.5-0.5,1.1-0.8,1.7c-0.3,0.7-0.6,1.3-0.7,2
	c-0.1,1.4,0.4,2.6,0.7,3.5c0.1,0.3,0.5,0.7,0.8,0.9c0.2,0.3,0.4,0.7,0.6,0.8c0.4,0.3,0.9,0.5,1.4,0.9c0.4,0.4,0.8,0.7,1.2,1
	c1.7,1.1,4.4,1.6,6.4,0.6c0.3-0.1,0.7-0.4,1-0.7c0.3-0.3,0.7-0.5,1-0.7c1.3-1,2.4-2.6,2.6-4.3c0.1-0.6,0.1-2,0.1-2.7
	c-0.1-0.5-0.7-1.2-0.9-1.9c-0.3-0.8-0.5-1.5-0.8-2.1c-0.2-0.3-0.6-0.7-0.9-1.2c-0.3-0.4-0.4-1-0.8-1.3c-0.4-0.5-1.3-0.9-1.3-1.6
	c-0.1-0.5,0.2-0.9,0.4-1.4c0.4-1.1,0.7-2,0.9-2.9c0.1-0.4,0-1,0.5-1.4c1.2,0.4,2.4,0.9,3.5,1.4c1.1,0.6,2.2,1.3,3,2.1
	c0.7,0.7,0.8,1.3,1.2,2.2c0.4,0.9,1.2,2,1.2,3.1c0,0.3-0.3,0.7-0.3,1.1c-0.1,0.4-0.2,1-0.2,1.4c0,0.5,0,1.1,0,1.6
	c0,0.4,0.4,0.9,0.5,1.3c0.1,0.6,0.1,1.3,0.3,1.9c0.4,1.1,1.1,2.5,1.8,3.3c0.8,0.8,1.7,1,2.9,1.3c0.7,0.1,1.4,0.3,2,0.3
	c0.8,0,1.7-0.2,2.5-0.3c2.7-0.3,4-1.8,5.1-3.8c0.7-1.3,1.1-3.3,0.8-4.9c-0.3-2-1.1-3.2-2.2-4.3c-1-1-2.1-1.3-3.5-1.7
	c-1.4-0.3-2.7-0.9-4.3-0.9c-0.7,0-1.8,0.2-2.7,0c-0.8-0.2-1.2-1.1-1.5-2c0.5-0.7,1.5-0.7,2.2-1c0.9-0.4,2-0.5,3.1-0.9
	c0.7-0.2,1.4-0.5,2.2-0.7c0.4,0,0.9,0,1.4-0.1c0.9-0.2,1.7-0.3,2.7-0.4c0.4-0.1,0.8-0.3,1.3-0.3c1.8-0.3,3.6-0.4,5.1,0.1
	c1.1,0.3,1.4,0.5,2,1.2c0.6,0.7,1.3,1.2,2,1.8c1,0.7,1.8,1.7,2.9,2.3c0.4,0.2,0.8,0.3,1.2,0.5c1.2,0.4,2.9,0.9,4.3,0.3
	c1.1-0.4,2.1-1.9,2.6-2.9c0.7-1.1,1.2-2.6,1.6-3.9c0.3-0.8,0.6-1.6,0.6-2.3c0.1-1.4-0.2-3-0.6-3.7c-1.2-1.9-3.6-3.2-6.8-2.6
	c-0.4,0-0.9,0.3-1.3,0.4c-0.5,0.2-1,0.4-1.4,0.5c-0.9,0.3-1.7,0.8-2.6,1.1c-0.9,0.4-1.8,0.7-2.5,1.2c-0.8,0.5-1.5,1.1-2.4,1.4
	c-0.9,0.3-2,0.5-3.1,0.7c-0.5,0.1-1.1,0.1-1.7,0.2c-0.5,0.1-1,0.3-1.4,0.4c-0.3,0-0.6-0.1-0.9,0c-0.4,0-0.8,0.3-1.3,0.4
	c-0.5,0.1-1.1,0-1.6,0.1c-0.3,0.1-0.6,0.3-0.9,0.3c-0.4,0.1-0.7,0.1-1.1,0.2c-0.7,0.1-1.3,0.4-2,0.6c-0.7,0.2-1.4,0.3-2.1,0.5
	c-0.7,0.2-1.4,0.3-2,0.6c-0.7,0.2-1.3,0.7-2.1,0.8c-0.6,0.1-1.1-0.1-1.8-0.4c-0.5-0.2-1.2-0.3-1.5-0.5c-0.7-0.3-1.7-1.7-1.9-2.4
	c-0.1-0.6,0.2-1.3,0-2c-0.1-0.4-0.4-1.1-0.7-1.6c-0.2-0.3-0.5-0.5-0.8-0.9c-0.2-0.3-0.4-0.7-0.7-1c-1.2-1.7-2.3-3.1-4.2-4.2
	c-0.5-0.3-0.9-0.4-1-0.7c-0.1-0.6,0.5-0.9,0.5-0.9c0.3-0.3,0.7-0.5,0.8-0.6c0.5-0.5,0.8-1.1,1.3-1.6c0.9-1,1.8-2,2.8-2.9
	c0.5-0.5,1.1-1.2,1.6-1.2c0.3,0,0.8,0.3,1.2,0.4c3.5,1,6.4,2.7,8,5.4c0.8,1.4,0.9,3.5,1.7,4.9c0.6,1,1.3,1.6,2.2,2.1
	c1.4,0.7,3,0.5,5.1,0.5c0.3,0,0.7,0.1,1.1,0.1c0.4,0,1-0.4,1.5-0.7c1.8-0.8,3.2-1.9,4-3.4c0.5-0.9,1.1-2.7,0.9-4
	c0-0.4-0.2-0.9-0.3-1.4c-0.3-1.2-0.5-2.1-1.2-3c-0.8-1.2-1.1-1.5-2.5-1.9c-1.3-0.4-2.8-1-4.5-0.9c-1.6,0-3.9,0.9-4.9,1.5
	c-0.4,0.2-0.9,0.9-1.4,1.4c-0.4,0.5-0.9,1.3-1.6,1.4c-0.8,0.1-1.5-0.4-2-0.7c-1.2-0.8-2-1.5-3.1-2.4c-0.5-0.3-1.4-0.8-1.4-1.4
	c0-0.4,0.9-0.9,1.4-1.2c0.5-0.5,1.1-0.8,1.5-1.1c0.5-0.4,1-0.8,1.5-1.1c0.8-0.5,1.4-0.9,2.2-1.4c0.2-0.1,0.4-0.3,0.6-0.4
	c0.9-0.5,1.9-0.6,2.9-1.1c0.6-0.2,1-0.6,1.4-0.6c0.4,0,0.4,0.2,0.8,0.4c0.3,0.2,0.5,0.3,0.8,0.5c1.7,1.1,3.5,2.2,5.7,3
	c1.7,0.6,3.4,1.1,5.1,1.4c0.6,0.1,1.3,0,1.7,0.5c0.1,0.6-0.3,1-0.4,1.6c-0.3,1.7,0.1,3.8,0.6,5c0.2,0.4,0.3,0.8,0.5,1.1
	c1,1.6,3.5,3,5.5,3.5c0.6,0.2,1.5,0.3,1.7,0.3c0.5,0,1.1-0.2,1.7-0.3c0.7-0.1,1.2-0.1,1.7-0.3c1-0.4,2.5-1.1,3.1-1.8
	c0.7-0.7,1.5-1.9,1.9-2.8c1.7-4.2-0.3-8.7-3.1-10.6c-0.5-0.3-1.6-0.6-2.5-0.8c-0.8-0.3-1.7-0.4-2.5-0.4c-1.4,0-2.7,0.4-3.7,0.7
	c-0.4,0.1-0.8,0.2-1.2,0.3c-0.7,0.3-1.2,1.3-1.9,1.4c-0.4,0-0.9-0.2-1.5-0.3c-1-0.3-2-0.4-2.9-0.7c-0.5-0.1-0.9-0.4-1.3-0.5
	c-0.5-0.1-0.9,0-1.2-0.1c-1.5-0.2-2.1-0.8-3.2-1.3c-0.5-0.3-1.8-0.6-1.8-1.4c0-0.7,1.1-0.6,1.8-0.8c0.4-0.1,0.6-0.3,0.9-0.4
	c0.4-0.1,0.8-0.3,1-0.3c0.7-0.2,1.2-0.6,1.9-0.8c0.8-0.2,1.8-0.2,2.4-0.4c0.8-0.2,2.2-0.8,3.2-0.6c0.3,0.1,0.4,0.2,0.8,0.3
	c0.3,0.1,0.7,0.1,1,0.1c0.6,0.2,1.2,0.4,1.9,0.5c1.8,0.3,3.7,0.4,5.3,0.1c1.1-0.3,1.6-0.4,2.4-1.1c1.1-0.8,1.8-1.5,1.9-3
	c0.1-1-0.1-2-0.3-2.7c-0.4-1.3-1-2.6-1.8-3.4c-0.8-0.8-1.8-1.9-3.1-2.1c-2.1-0.3-3.6,0.9-4.6,1.6c-0.6,0.4-1,1.1-1.6,1.4
	c-0.4,0.3-0.8,0.3-1.1,0.5c-0.2,0.2-0.3,0.5-0.5,0.8c-0.2,0.3-0.5,0.4-0.7,0.7c-0.3,0.4-0.6,1-1.3,1.4c-0.4,0.3-1,0.3-1.5,0.5
	c-0.5,0.2-1.1,0.4-1.5,0.6c-1,0.5-2,1-3.1,1.1c-0.5-0.9,0-2,0.2-3c0.3-0.9,0.7-1.9,1.1-2.7c0.3-0.7,0.7-1.6,1.2-2.5
	c0.4-0.8,1-2,1.6-2.2c0.5-0.2,0.9,0,1.3,0c0.3-0.1,0.8-0.3,1.2-0.5c1-0.4,1.4-0.8,2.1-1.2c0.4-0.3,0.8-0.4,1.1-0.7
	c0.4-0.4,0.8-1.2,1.1-1.9c1.2-2.6,1-5.9-0.4-8.1c-0.8-1.3-1.2-1.6-2.2-2.3c-0.3-0.2-0.6-0.5-1-0.7c-1.3-0.5-3.7-0.7-5.2-0.4
	c-1.1,0.2-2.3,1-2.9,1.6c-0.7,0.6-1.2,1.3-1.7,2.1c-0.8,1.6-1.4,3.2-1.1,5.3c0.2,1.9,0.9,3.3,2.1,4.7c0.7,0.2,1.1,0.7,1.7,1.1
	c0.1,0.1,0.3,0.1,0.5,0.1c1.1,0.7,0.4,1.1-0.2,2.1c-1,1.6-1.6,3-2.4,4.4c-0.5,0.9-1.1,2-1.5,3c-0.4,0.9-0.7,2.6-1.3,3.3
	c-0.4,0.4-0.9,0.6-1.6,0.9c-0.6,0.3-1.1,0.7-1.4,0.7c-0.3-0.1-0.4-0.5-0.7-0.9c-0.3-0.3-0.7-0.7-0.8-0.9c-0.6-0.7-1.1-1.4-1.5-2
	c-1.2-1.8-2.2-3.5-3.5-5c-0.1-0.1-0.3-0.4-0.4-0.4c-0.6-0.9,0.5-1.5,1-2.1c1.3-1.5,2.4-3.2,2.2-6.1c-0.2-2-1.2-3.8-2.4-4.8
	c-1.3-1.1-4.7-2.3-7.1-1.6c-0.4,0.1-0.9,0.4-1.3,0.7c-0.7,0.2-1.4,0.3-1.8,0.7c-0.4,0.3-0.9,0.9-1.2,1.3c-0.9,1.3-1.7,3.7-1.3,5.6
	c0.2,1.1,0.4,1.5,0.8,2.4c0.2,0.5,0.4,1.1,0.7,1.4c0.2,0.3,0.6,0.5,0.9,0.8c0.3,0.3,0.5,0.6,0.8,0.8c0.7,0.5,1.7,0.7,2.5,1
	c0.9,0.3,1.9,0.4,2.8,0.7c1.2,0.4,2,1.3,2.6,2.2c0.4,0.5,1.7,2,1.3,2.7c-0.2,0.4-0.5,0.3-1.2,0.4c-1.4,0.1-3.3,0.2-4.4,0.3
	c-2,0.1-4.2-0.2-5.7-0.3c-1-0.1-1.8-0.2-2.6-0.4c-1.7-0.5-2.4-1.5-3.6-2.5c-0.6-0.5-1.6-0.8-1.7-1.4c0-0.2,0.1-0.6,0.2-0.8
	c0-0.4,0-0.8,0-1.1c-0.2-2.3-0.7-4.1-1.7-5.5c-0.4-0.5-0.8-0.7-1.4-1.1c-0.4-0.2-0.7-0.6-1.1-0.8c-0.7-0.4-1.7-0.6-2.4-0.7
	c-1.8-0.2-2.7,0.2-3.9,0.8c-2,0.9-3.1,1.7-4,3.8c-0.2,0.5-0.5,1.2-0.6,1.6c-0.2,1-0.2,2-0.1,2.7c0.3,2.6,1.2,3.9,2.6,5.6
	c1.4,1,2.4,1.5,4.7,1.6c0.8,0,1.9,0.1,2.7-0.1c0.4-0.1,1.3-0.7,1.7-0.9c0.6-0.4,1-1.2,1.7-1.2c0.3,0,0.6,0.4,0.9,0.7
	c1.3,0.9,2.5,1.3,4.5,1.7c1.3,0.3,2.6,0.6,3.9,0.8c1.1,0.1,2.4,0,3.5,0c1.2,0,2.4,0.1,3.5,0.1c0.8-0.1,1.8-0.4,2.8-0.4
	c0.3,0,0.7,0.1,1.1,0c0.6-0.1,1.4-0.6,2.1-0.2c0.4,0.3,1.1,2.6,1,3c-0.1,0.3-0.6,0.6-1,0.9c-0.8,0.6-1.8,0.9-2.6,1.4
	c-0.5,0.3-0.8,0.8-1.2,0.9c-0.4,0.2-0.9,0.2-1.1,0.2c-0.3,0.2-0.7,0.6-1.2,0.8c-0.5,0.3-0.9,0.5-1.2,0.8c-0.2,0.2-0.3,0.4-0.5,0.5
	c-0.2,0.2-0.5,0.2-0.7,0.4c-0.4,0.3-0.7,0.7-1.1,1c-0.7,0.5-1.5,1-2.3,1.8c-0.5,0.4-1.6,1.8-2.4,1.8c-1.3,0-2.1-2.8-2.4-3.9
	c-0.3-1.3-0.4-2.5-1.2-3.2c-1.5-1.3-3.3-1.7-5.4-0.9c-0.6,0.2-1.6,0.7-2,1c-0.6,0.5-1.1,1.6-1.2,2.4c-0.1,1,0.2,2,0.4,2.6
	c0.1,0.4,0,0.8,0.1,1c0.1,0.2,0.4,0.4,0.5,0.6c0.9,1.2,1.3,2.1,2.9,2.3c1.7,0.2,3.3-0.7,4.1-1.3c0.3-0.2,0.6-0.7,1.3-0.8
	c0.8,0,1.8,0.6,1.8,1.2c0,0.4-0.6,0.7-1,1.2c-1,1.2-2.3,2.7-3.1,3.6c-0.7,0.9-1.4,1.6-2,2.4c-0.3,0.4-0.6,0.8-0.9,1.3
	c-0.3,0.4-0.5,1-1.1,1.2c-1-1-1.5-2.3-2-3.6c-0.7-1.7-0.8-3.8-1.8-5c-0.4-0.5-1.3-1.8-1.8-1.9c-2.4-0.5-5.1-0.7-6.9,0.3
	c-0.4,0.2-0.9,0.8-1.4,1.3c-0.9,1-1.5,2.1-1.7,3.6c-0.1,1.4,0.2,2.4,0.4,3.4c0.2,1.2,0.5,1.9,0.9,2.6c0.2,0.3,0.3,0.7,0.5,1
	c1,1.3,1.9,1.8,4,1.8c1,0,2-0.1,2.7-0.3c0.3-0.1,0.6-0.4,1-0.6c0.4-0.2,0.9-0.2,1.3-0.4c0.6-0.3,1-1.5,2-1.5c0.4,0,0.7,0.3,1,0.5
	c0.3,0.2,0.7,0.2,0.7,0.8c0,0.5-1,1.5-1.3,1.8c-1.1,1.4-1.6,2.5-2.3,4c-0.5,1-1.3,2.1-1.9,2.8c-0.2,0.3-0.3,0.6-0.5,1.1
	c-0.3,0.7-0.8,1.4-1.1,2.1c-0.3,0.8-0.6,1.5-0.9,2.2c-0.3,0.8-0.8,1.4-1.1,2.1c-0.6,1.4-1.2,2.9-1.8,4.4c-1,2.5-1.7,4.5-2.4,7
	c-0.5,1.7-1,2.9-1.5,4.8c-0.2,0.8-0.4,2.2-0.7,2.5c-0.5,0.6-2.1,0.5-2.9,0.3c-0.5-0.1-1.7-0.7-2.1-1c-1.1-0.8-2.2-2.3-2.3-3.5
	c0-0.9,0.3-1.1,0.5-1.8c0.1-0.6,0.2-1.4,0.3-2.1c0.1-0.7,0.2-1.4,0.2-2.1c0.1-3.4-0.3-7.6-0.4-11c0-1.3-0.2-2.6-0.1-3.8
	c0.1-1.2,0.7-1.9,1.1-2.8c0.5-1.3,0.8-2.5,1.1-4c0.1-0.7,0.4-1.5,0.4-2.2c0.2-1.9-0.1-3.7-0.7-4.9c-0.3-0.6-0.7-1.3-1.1-1.6
	c-0.2-0.1-0.7-0.1-1.1-0.3c-0.3-0.1-0.6-0.4-0.9-0.5c-0.3-0.1-0.7,0-0.9-0.1c-0.3-0.1-0.6-0.2-0.9-0.2c-1.2-0.1-1.8,0.4-2.7,0.6
	c-0.5,0.1-1.1,0.1-1.7,0.3c-0.6,0.2-1.3,0.8-1.7,1.1c-0.3,0.1-0.5,0.2-0.7,0.3c-0.7,0.5-1.4,1.1-2.1,1.8c-0.6,0.7-1.4,1.6-1.6,2.3
	c-0.8,2.5,0.8,4.5,1.8,5.7c0.6,0.7,1.2,1.3,1.8,1.8c1.4,1.1,3.4,1.7,4.5,3c0.4,0.4,0.5,1.1,0.8,1.8c0.5,1.6,1,3.9,1.1,5.7
	c0,0.4-0.1,0.8-0.1,1.2c0,0.4,0.2,0.8,0.2,1.3c0,0.5-0.1,1-0.2,1.4c0,0.3,0.2,0.6,0.2,0.8c0.1,1.6-0.1,3.6-0.3,5
	c0,0.6,0.1,1.3-0.4,1.7c-1.6,0.2-2.2-0.6-2.5-1.8c-0.5-2-0.9-3.8-1.8-5.2c-0.7-0.9-1.1-1.5-1.9-2.3c-1.1-1.2-3-2.5-4.9-2.6
	c-2.4-0.2-5,1-6.2,2.2c-0.6,0.6-0.9,1-1.4,1.8c-0.3,0.4-0.7,0.8-0.9,1.2c-0.6,1.2-0.7,3.4-0.5,4.6c0,0.4,0,0.7,0.1,1.1
	c0.2,0.7,0.7,1.2,1.1,1.8c0.3,0.4,0.6,1,0.9,1.3c1.3,1.3,3.3,1.6,5.4,1.9c1.7,0.2,3.4,0,4.7-0.5c0.5-0.1,1-0.2,1.4-0.4
	c0.4-0.2,0.7-0.5,1.1-0.6c0.7-0.1,1.5,0.1,2.2,0.2c0.7,0.2,1.4,0.1,2.1,0.2c0.6,0.1,1.3,0.7,1.9,1.1c0.6,0.5,1.2,1.1,1.6,1.5
	c1.1,1.2,2.1,2,2.7,3.5c-0.9,1.3-2.8,1.7-4,2.7c-0.5,0.4-0.9,0.9-1.4,0.9c-0.4,0-0.9-0.6-1.3-0.8c-0.5-0.3-1-0.5-1.4-0.7
	c-1.9-0.8-4.2-1.6-6.6-1.5c-2.2,0-4,1.3-5.2,2.5c-0.9,1-2,2.5-2.2,3.9c-0.5,3.1,0.6,4.7,2.2,6.3c0.6,0.5,1.3,1.1,2,1.5
	c0.8,0.4,1.7,1,2.4,1.2c1,0.2,2,0,2.9,0.2h0.1c0.6-0.1,1.3-0.5,1.9-0.8c1.7-0.9,2.8-2.6,4.1-3.8c0.6-1,1.2-2.1,1.8-3.2
	c0.3-0.5,0.6-0.9,1-1.4c0.4-0.5,0.6-1.1,1-1.5c0.3-0.2,0.6-0.4,0.9-0.6c0.2-0.2,0.5-0.4,0.7-0.7c0.6-0.5,1.1-0.8,1.7-1.3
	c1.2-0.8,2.3-1.9,3.9-2c0.2,1.1-0.3,2.1-0.4,3.3c-0.4,2.9-0.9,5.8-1.3,8.9c-0.1,0.6,0,1.5-0.3,1.8c-0.4,0.4-2.4,0.6-3.3,0.8
	c-1.4,0.3-2.4,0.4-3.5,0.7c-4.7,1.3-9.3,2.6-13.5,4.1c-0.9,0.4-1.6,0.5-2.4,0.8c-1.1,0.4-2,0.8-2.9,1.3c-0.7,0.1-1.4,0.5-2,0.8
	c-1.4,0.6-2.6,1.2-3.8,1.8c-0.3,0.2-0.8,0.2-1.1,0.3c-0.3,0.2-0.5,0.6-0.9,0.4c-1-10-1.3-21.1-2-31.6c-0.3-4.3-0.4-8.7-0.4-13
	c0-2.2-0.1-4.4-0.1-6.5c-0.1-2,0-4.1-0.2-6.1c-0.2-1.6-0.1-3.6-0.2-5.3c-0.3-2.9-0.4-6.1-0.5-9.1c0-1.1-0.3-2.2-0.2-3
	c0.1-0.3,0.6-1,0.9-1.6c0.4-0.5,0.8-1.1,1.1-1.5c2.2-3.1,4.8-5.6,7-8.4c1.6-2,2.9-3.9,4.6-5.7c1.7-1.9,3.1-3.7,4.9-5.4
	c3.7-3.3,7.3-6.3,11.5-9.2c1.8-1.3,4-2.8,5.9-4.4c0.9-0.7,2-1.5,2.8-2.3c1.3-1.2,2.1-2.5,3.9-2.6c1.6,0,3,0,4.4,0
	c0.7-0.1,1.4-0.3,2.2-0.4c0.8-0.1,1.6-0.1,2.4-0.2c0.9-0.1,1.7-0.4,2.6-0.6c0.9-0.2,1.8-0.3,2.7-0.5c10.2-2.5,19-6.8,26.4-12
	c0.9-0.7,2-1.3,2.8-2c0.2-0.2,0.4-0.8,0.9-0.6c-0.1,2-1.4,3.6-1.5,5.7c-0.1,1.3,0.4,2.6,0.9,3.3c1.1,1.3,3.5,2,5.3,2.1
	c0.4,0,1,0,1.3-0.1c3.4-0.7,5.6-5.5,3.2-8.5c-0.4-0.6-1.2-1-1.9-1.4c-2-0.9-4.7-0.6-6.1-2.3c1.8-1.8,3.6-3.6,5.3-5.5
	c0.8-0.9,1.7-2,2.5-2.9c0.8-1,1.5-2.1,2.4-3.1c0.6,0.5,0.8,1.1,1.1,1.8c0.3,0.6,0.6,1.3,0.7,2.2c-0.7,0.5-1.2,0.5-1.7,0.8
	c-1.4,0.8-2.4,2.1-2.3,4.1c0.1,2.2,2.2,3.9,3.9,4c2.7,0.3,4.9-1.9,4.9-4.4c0.1-1.6-1-3-1.8-3.6c-0.4-0.2-1.2-0.3-1.5-0.9
	c-0.1-0.2-0.2-0.7-0.3-1.2c-0.4-1.9-0.9-3.6-1.6-5c1.3-2.1,2.5-4.4,3.8-6.6c0.7,0.2,1.6,0.3,2.2,0.7c-0.1,1.8-0.3,3.7-0.3,5.6
	c0,3.1,0.4,6,1.2,8.3c0.5,1.4,1.5,2.6,2.2,3.7c-1.1,1.5-1.8,2.9-1.6,5c0.3,2.4,2.4,4.5,4.6,5c1.6,0.4,3.3,0.2,4.5-0.3
	c1.8-0.8,3.5-2.7,3.8-4.8c0.3-2.5-0.8-4.2-1.9-5.1c-0.9-0.8-2.1-1.6-3.4-1.8c-0.9-0.1-1.6,0.1-2.3,0c-0.3-0.1-0.7-0.3-1.1-0.5
	c-1-0.5-2.1-1.5-2.6-2.3c-0.8-1.4-0.9-3.7-1-5.7c-0.1-1.1-0.1-2.1-0.1-3.1c0-1.1,0-2.1,0.2-3c1,0.2,1.8,0.6,2.6,1.2
	c0.7,0.5,1.7,1.2,2,1.9c0.2,0.4,0,0.9,0.2,1.2c0.5,2.8,2.7,5.7,6.4,5.4c0.2,0,0.4-0.2,0.6-0.3c0.3-0.1,0.6,0,0.9-0.1
	c1.6-0.5,2.8-1.9,3.5-3.4c0.5-1.1,0.7-2.6,0.3-4c-0.6-2.4-3.2-4.6-6.3-4.4c-1.3,0.1-2.8,0.9-3.5,1.4c-0.6,0.5-0.8,1.2-1.4,1.7
	c-2.4-1.4-4.8-3.1-7.2-4.5c-0.5-0.3-0.9-0.4-1-0.7c-0.1-0.5,1.2-2.6,1.4-2.7c0.6-0.4,1.5-0.8,2.3-1.2c1.6-0.8,3.2-1.7,4.5-2.5
	c0.8-0.5,1.6-1.1,2.4-1.3c0.4,0.4,0.5,0.9,0.8,1.3c1.9,2.2,6,3,8.7,1.2c0.2-0.1,0.4-0.5,0.6-0.7c0.3-0.2,0.6-0.4,0.8-0.6
	c0.9-1,1.5-2.8,1.3-4.4c-0.2-3-3.1-5.7-6.4-5.6c-1.4,0.1-2.9,0.5-3.9,1.3c-1.5,1.1-2.4,2.9-2.5,5.2c-1.5,1.1-3.4,2.3-5.2,3
	c-0.6,0.3-1.4,0.5-2.1,0.5c0.2-1.3,0.6-2,0.9-3.1c0.3-1,0.4-2.3,0.8-3.2c0.4-0.7,1.3-1.4,1.9-2.3c1-1.4,2.4-3.2,2.4-5.4
	c0-2.8-2.9-4.4-5.6-4.3c-0.4,0-1.5,0.2-2,0.5c-2.7,1.4-2.3,6.6-1.2,9.2c0.2,0.5,0.6,1,0.7,1.5c0.1,0.8-0.1,2-0.2,2.9
	c-0.3,2.3-0.9,4.6-1.5,6.6c-0.1,0.4-0.2,0.9-0.6,1.1c-0.4-0.1-0.7-0.5-0.9-0.8c-1.8-2.4-2.7-5.8-3.5-9.1c1-1.5,2.1-3.2,1.8-5.7
	c-0.3-3-2.4-5-4.7-6c-2.6-0.6-4.9,0.1-6.2,1.1c-0.8,0.6-1.6,1.7-2,2.5c-1.3,2.7-0.5,5.9,1,7.6c1.3,1.5,3.4,2.5,6,2.4
	c0.6,0.9,1.1,1.9,1.6,2.9c1.2,2.4,2.8,4.9,4.8,6.6c0.5,0.4,1.1,0.8,1.2,1.2c0,0.3-0.3,0.8-0.5,1.3c-1,2.3-1.9,3.8-3.2,5.9
	c-0.2,0.3-1,2.1-1.5,2.1c-0.4,0-1.8-1.4-2.2-1.8c-0.7-0.8-1.3-1.5-1.7-2.3c-0.9-2,0.6-2.3,1.5-3.5c0.5-0.8,1.1-2.2,1.2-3.3
	c0.2-1.5-0.4-3.4-0.8-4.7c-0.1-0.2-0.4-0.5-0.7-0.7c-1.7-1.6-4.9-2.7-7.3-1.3c-1.7,1-2.9,3-3.2,5.4c-0.1,1-0.2,2.3,0.1,3.4
	c0.6,1.8,2.3,2.6,4.1,3.1c0.6,0.2,1.2,0.2,1.8,0.4c1.6,0.6,2.6,2.2,3.3,3.5c0.7,1.2,1.4,2.6,1.7,4.2c-1.1,1.3-2.3,2.6-3.5,3.7
	c-0.4,0.4-0.9,0.8-1.3,1.1c-0.7-0.5-1-1.1-1.6-1.6c-0.8-0.6-2.1-1.1-3.2-1.4c-1.2-0.4-2.6-0.5-3.6-1c-1-0.5-3.1-2.1-3.1-3.4
	c0-0.5,0.4-1.2,0.8-1.8c1.8-3.4,2.1-8.3,2.4-12.9c0.1-0.8,0.1-1.7,0.2-2.4c0.3-0.7,0.8-1.3,1.1-1.9c0.3-0.6,0.6-1.3,0.9-1.9
	c0.6-1.2,1.2-2.6,1.4-4.1c0.3-2-0.3-3.7-1.5-4.7c-2.8-2.1-6.9,0-9.5,1.4c-0.9,0.9-1.6,2.4-1.1,4.1c0.3,1.3,1.1,2.3,1.8,3.3
	c0.5,0.7,1.1,1.3,1.7,1.9c1.1,1.3,1.9,3,2.2,5c0.5,3.1-0.3,6.7-1.2,9.3c-0.1,0.4-0.8,2.2-1.2,2.4c-0.5,0.1-1.7-0.8-1.9-1.3
	c-0.2-0.7,0-1.5-0.1-2c-0.2-1.5-0.6-2.9-1.1-4c-0.2-0.4-0.3-0.9-0.5-1.2c0-0.1-0.3-0.2-0.4-0.3c-0.1-0.1-0.1-0.4-0.2-0.5
	c-1.6-1.7-4.1-2.4-6.4-1.6c-1.5,0.5-2.7,1.7-3.5,3c-0.5,0.9-0.9,2.3-0.8,3.5c0.1,3.1,2,4.5,4.2,5.2c1.1,0.4,2.4,0.7,3.9,0.6
	c0.8-0.1,1.5-0.5,2.4-0.5c0.4,0,0.9,0.3,1.4,0.5c0.6,0.2,1.3,0.3,1.7,0.5c1,0.5,1.6,1.5,2.2,2.4c0.6,1.1,1.1,2,1.3,3.3
	c-0.6,0.4-1.3,0.5-2.1,0.8c-0.5,0.2-1.6,0.9-2.2,0.9c-0.4,0-0.9-0.7-1.5-1.1c-0.5-0.4-1.2-0.8-1.7-1.1c-1.6-0.8-3.5-1.8-5.5-1.2
	c-2.1,0.6-3.9,2.6-4.5,4.7c-0.1,0.5-0.2,1.4-0.1,1.9c0.1,1.2,1.2,2.8,1.8,3.5c0.8,0.9,2.7,2.3,4.3,2.3c1,0,2.2-0.4,2.9-0.9
	c1-0.6,1.7-1.4,2.4-2.4c1.5-1.7,3.1-3.5,4.9-4.7c1-0.6,2.1-1.2,3.4-1.5c3-0.8,5.1,0.3,5.8,3.1c-0.7,0.9-1.8,1.4-2.8,2.1
	c-6.5,4.1-14.3,8.1-23.6,8.7c-2.2,0.1-4.3,0.2-6.4,0c-0.4-0.1-0.9,0-1.2-0.4c0-0.5,0.4-1,0.7-1.4c0.9-1.9,1.7-4,2.5-6
	c0.6-1.6,1-3.2,1.5-4.9c0.6-2.1,1.2-4.5,1.4-7c0.3-2.5,0.4-5.4,0-8.2c0-0.4-0.2-0.7-0.3-1.1c-0.1-0.5-0.1-0.9-0.2-1.3
	c-0.3-2.1-1-4-1.6-5.7c-0.1-0.3-0.2-0.8-0.5-1c-0.4,0-0.6,0.5-0.9,0.8c-0.6,0.8-1.1,1.3-1.8,2.1c-0.4,0.4-0.8,0.6-0.8,1.1
	c0,0.3,0.3,1,0.4,1.5c0.5,1.4,1,2.8,1,4.4c-0.7-0.3-1.1-0.6-1.7-1.1c-0.4-0.2-1.4-0.9-1.5-1.3c-0.2-0.4,0.1-1.3,0.1-1.9
	c0-0.7,0-1.3-0.1-1.9c-0.1-1.5-0.2-2.7-0.8-3.6c-0.5,1.6-1.5,3.1-2.5,4.2c-0.4,0.4-0.7,0.9-1.1,1.2c-0.2,0.1-0.4,0.1-0.7,0.3
	c-0.2,0.2-0.3,0.4-0.5,0.5c-1.1,1-2.5,1.6-3.6,2.5c-0.5-0.1-0.9,0.2-1.3,0.3c-0.4,0.1-0.8,0.3-1.1,0.5c0.5,0.5,1.6,0.6,2.6,0.7
	c0.9,0.1,2.4,0.3,3.2,0.2c0.8-0.1,1.2-0.9,1.9-0.9c-0.1,0.8-1.3,0.8-1.2,1.6c0.4,0.2,1-0.1,1.4-0.2c0.8,0.5,1.7,0.8,2.5,1.2
	c0.9,0.5,1.9,1,2.6,1.5c0.2,0.5,0.4,1,0.7,1.4c0.1,0.7,0.7,0.7,0.8,1.3c0,0.3-0.2,1.1-0.4,1.7c-1.1,4.3-3.1,7.9-5.2,10.8
	c-0.3,0.5-0.5,0.9-0.8,1.3c-2.5,3.4-5.6,6.7-8.6,9.5c-0.8,0.8-1.6,1.5-2.4,2.2c-0.3,0.3-0.7,0.7-0.8,0.9c-0.1,0.1-0.3,0-0.4,0.1
	c-0.8,0.7-1.5,1.4-2.4,2.1c-2.6,2-5.1,4-7.8,5.8c-0.9,0.6-1.8,1.2-2.7,1.9c-0.9,0.6-1.7,1.4-2.6,1.9c-0.7,0.3-1.5,0.6-2.1,1
	c-1.4,0.8-2.6,1.6-3.9,2.4c-0.7,0.4-1.3,0.9-2,1c-2.2-5.4-1.7-13.8,0.2-18.9c0.3-0.8,0.6-1.7,0.9-2.4c0.4-1,1-1.6,1.4-2.4
	c0.4-0.7,0.8-1.4,1.4-2.3c0.4-0.5,1.1-1.9,1.8-2c0.3,0,1.1,0.2,1.6,0.3c1.6,0.4,3.2,1.2,3.9,2.2c0.9,1.4,1.1,3.2,2.6,3.7
	c1,0.3,2.4,0.1,3.3-0.2c1.2-0.4,2.7-1.6,3.1-2.7c0.7-2.3-0.7-4.3-1.9-5.1c-1.5-0.9-4.1-0.5-5.4,0.6c-0.5,0.4-1.1,1.7-1.8,1.8
	c-1,0.2-2.6-1.1-3.1-1.5c-0.3-0.2-0.7-0.4-0.7-0.9c1.6-1.8,3.6-3.2,5.7-4.5c1,0.9,2.2,1.5,3.6,2c1.4,0.4,3.2,0.5,4.7,0.7
	c0.1,1.7,0.3,3.1,1.1,4.1c0.7,1,2.2,1.9,3.8,1.8c1.3-0.1,2.7-0.9,3.4-1.7c0.9-1.1,1.5-2.7,1-4.3c-0.3-1.1-1-2-2-2.7
	c-1.2-0.7-2.8-1-4.1-0.6c-0.8,0.2-1.2,0.5-1.7,0.9c-0.3,0.3-0.5,0.7-1,0.8c-0.4,0.1-1.3-0.2-1.9-0.2c-0.7-0.1-1.3-0.2-1.9-0.3
	c-1.2-0.3-2.5-0.5-3.1-1.4c0.4-0.5,1-0.6,1.6-0.8c1.7-0.8,3.4-1.5,5.4-2c2.2,1.2,6.9,0.5,7.3-1.8c0.2-1.2-0.4-2.7-1-3.5
	c-0.3-0.3-1-0.8-1.4-0.9c-2.8-0.7-4.7,2.5-6.1,3.8c-0.7,0.3-1.4,0.5-2.1,0.8c-0.7,0.3-1.2,1-1.9,0.9c0.4-2.1,0.8-3.9,1.8-5.4
	c3-0.3,4.6-3.8,3.2-6.5c-1.9-3.8-8.3-2.5-8,2.4c0.1,1.4,0.8,2.6,1.6,3.3c0.5,0.4,1.1,0.4,1.6,0.9c-0.6,1.4-1.5,3.3-2,5
	c-0.3,0.6-0.3,1.3-0.6,1.7c-0.2,0.3-1.2,1.1-1.7,1c-0.4-0.1-0.8-0.8-1.1-1.2c-1.2-1.4-2.3-2.4-3.2-3.8c0.5-0.4,0.8-1,1.2-1.6
	c-0.1-0.4,0.2-0.7,0.3-1c0.4-3.5-3.1-5.9-6-4.4c-1.4,0.7-2.5,2.3-2.3,4.1c0.1,1.4,1.2,3.1,2.8,3.6c0.8,0.3,1.5,0.1,2.2,0.3
	c0.9,0.3,1.7,0.9,2.2,1.5c0.2,0.2,0.5,0.5,0.6,1c-0.9,0.4-2.2,0.5-3.4,0.7c-1.3,0.2-2.8,0.3-4.1,0.2c-0.9-0.2-1.4-0.7-2-1.1
	c-0.5-0.2-1-0.3-1.2-0.7c0.2-3.2-2.1-5.6-4.9-5.2c-1.4,0.3-3.1,1.8-3.4,3.2c-0.9,3.5,2.3,6.7,5.7,5.4c0.8-0.3,1.2-0.8,2-1.4
	c2.8,2.2,8.6,1.2,12.1,0.3c0.2,0.3,0.7,0.9,0.7,1.3c-0.1,0.4-0.6,0.6-1,0.9c-0.8,0.6-1.3,1-2,1.7c-0.2,0.2-0.7,0.8-1.1,0.9
	c-0.3,0.1-0.7-0.2-1.1-0.3c-1.1-0.2-2.3-0.3-3.3-0.3c-0.5-0.5-0.7-1.1-1.3-1.4c-1.8-1.1-4.4,0.1-4.6,2.2c-0.2,1.6,0.7,2.9,1.9,3.3
	c1.8,0.6,3.2-0.2,3.8-1.3c0.2-0.5,0.2-1.1,0.6-1.5c0.9-0.2,2.1,0,2.7,0.5c-1.5,1.7-3.4,3.5-4.9,5.5c-0.4,0.6-0.9,1.9-1.6,2
	c-0.6,0.1-1.3-0.5-1.6-0.9c-0.4-0.6-0.4-1.4-0.7-1.9c-1.4-2.9-5.2-1.7-6.3,0.1c-1,1.8,0,4.3,1,5.3c1.2,1.3,3,0.9,4.3,0
	c0.4-0.3,0.6-0.8,1.1-0.8c-2.2,5.1-4.5,11-5.2,17.8c-0.2,2.3-0.7,4.8-0.4,7.2c0,0.6,0.2,1.4,0.5,2c-0.8,0.8-1.8,1.5-2.5,2.3
	c-0.3,0.2-0.5,0.7-0.9,0.5c-0.5-10.9-1.4-22-1.9-32.7c-0.1-2.7-0.4-5.5-0.5-8.1c0-0.9-0.2-1.8-0.2-2.7c-0.2-3-0.4-6.1-0.6-9.1
	c-0.3-4.6-0.3-9.3-0.5-13.5c0-1.1-0.2-2.1-0.2-3c-0.1-2.3,0.2-4.5,0.2-6.8c0-2.2,0.2-4.4,0-6.6c-0.1-0.9-0.3-1.6-0.3-2.7
	c0.1-1.5,0.6-3.2,1-4.5c0.1-0.5,0.3-0.9,0.5-1.4c0.6-1.9,1.2-3.8,2.1-5.3c1.8-3.2,4.1-6,6.4-8.3c1.8,0.6,3.8,2.1,3.3,4.6
	c-0.2,1.2-0.8,2.4-1.4,3.4c-1.3,2-3,3.4-5,4.7c-2.4,1.5-5.8,4.1-4,8c0.7,1.7,2.5,3.7,4.4,4c1.4,0.3,2.9,0,3.8-0.5
	c1.7-0.9,3.3-2.6,3.4-4.7c0.1-2.1-0.9-4.2-1.5-5.4c-0.4-0.7-0.8-1.4-1.2-2c0.4-0.6,0.8-1.3,1.1-2c0.4-0.7,0.6-1.6,1.2-2
	c1.7,0.8,4.5,2.1,5.1,4.1c0.2,0.4,0.2,1,0.2,1.7c0.1,0.5,0.4,1.1,0.4,1.5c0,0.4-0.4,0.9-0.5,1.4c-0.5,2-0.2,3.7,0.2,5.5
	c0.4,1.3,1,2.1,2,2.7c2,1.3,5.1,1.2,7.1-0.2c0.8-0.5,2-2,2.4-3.4c1-3.7-1.5-6.1-4-7.2c-1.5-0.7-3.1-1-4.9-1.3c-0.5-0.5-0.9-1-0.9-2
	c3.9-1.4,8.4-2.3,12.5-0.7c2,0.7,3.3,1.9,4.4,3.1c1.2,1.2,2.5,2.8,4.2,3.3c1.7,0.5,3.3-0.5,4-1.3c1-1.1,2.2-3.6,2.5-5.3
	c0.3-2-0.4-3.6-1.7-4.4c-2.5-1.6-6.7-0.3-9,0.8c-0.7,0.3-1.4,0.7-2,0.8c-1.2,0.3-3.2,0.1-4.8,0c-3.9-0.2-7.3,0-10.1,1.1
	c-0.6,0.3-1.2,0.6-1.8,0.6c-0.8,0-1.3-0.7-1.8-1.3c-1.1-1.2-1.5-2.5-1.7-4.4c-0.1-1-0.3-2-0.5-2.7c-0.5-1.5-1.3-2.5-2.2-3.4
	c1.3-1.2,2.5-2.1,4.1-3.2c0.4-0.3,1.1-0.8,1.5-0.8c0.5,0,1.3,0.6,1.8,0.8c1.7,0.9,3.5,2,4.3,3.6c0.4,0.8,0.4,2,0.6,2.9
	c0.3,1.6,0.8,2.8,1.8,3.5c2.8,1.9,7.6,0.9,9.3-1.2c1.3-1.6,1.3-4.6,0.4-6.5c-0.1-0.2-0.2-0.5-0.3-0.6c-0.9-1.5-3.4-2.5-5.7-2.4
	c-1.8,0.1-3.1,0.9-4.1,1.7c-0.4,0.3-0.7,0.7-1.2,0.7c-1.1,0.1-2.2-1-2.8-1.7c-0.4-0.4-0.7-0.8-1-1.2c-0.4-0.4-0.7-0.8-0.9-1.4
	c3-1.6,6.2-3,9.7-4c2.3,3.4,5.9,5.6,9.3,8c-0.7,4.2,1.8,7.1,4.7,7.9c3.8,1,7.7-1.2,8.5-5c0.3-1.6-0.1-3.4-0.7-4.6
	c-1.4-2.5-5.1-4.4-8.5-3.1c-0.4,0.2-1.2,0.9-1.6,0.9c-0.7,0.1-1.8-0.6-2.5-0.8c-2.6-1-4.9-2.1-6.4-4c1.2-0.4,2.6-0.5,4-0.8
	c1.4-0.2,3-0.5,4.4-0.4c0.7,0,1.5,0.5,2.1,0.8c0.7,0.2,1.3,0.4,1.9,0.6c1.3,0.4,2.8,0.9,4.5,0.6c0.7-0.1,1.7-0.7,2.1-1.3
	c0.8-1.2,0.9-3.5,0.4-4.9c-0.1-0.4-0.5-1-0.8-1.4c-0.6-1-1.3-1.5-2.4-1.9c-1.2-0.1-2.1,0.2-3.1,0.7c-1.3,0.6-2.3,1.2-3.3,2.1
	c-0.6,0.4-0.9,1.1-1.5,1.2c-0.1,0.1-0.4,0-0.6,0c-1.4,0.2-2.9,0.6-4.3,0.6c0.6-2.2,1.7-3.7,3-5.4c0.4-0.5,0.9-1.3,1.3-1.4
	c0.2-0.1,0.6,0.1,1,0.1c2.4-0.1,4.3-1.6,5.2-3.2c0.8-1.4,0.9-3.4,0.5-5c-0.6-2.2-2.5-3.9-5-4.2c-2.9-0.4-5.5,1.9-6.4,4.1
	c-0.6,1.6-0.3,3.8,0.3,4.9c0.4,0.9,0.8,1.5,1.5,2c0.2,0.3,0.7,0.4,0.8,0.7c-0.4,0.8-1,1.4-1.5,2c-1.6,2.1-3,4.2-4.4,6.4
	c-0.9,0.2-1.8,0.7-2.8,0.8c-0.4-0.6-0.8-1.2-1.1-1.9c-1-2.1-2-4.2-3-6.3c1.9-1.2,3.3-2.4,3.5-4.7c0.5-4.1-2.8-6.8-6.1-6.6
	c-1.8,0.1-4,1.3-4.9,3.1c-0.8,1.4-0.8,3.7-0.1,5.1c0.7,1.4,2.2,2.5,3.6,3c0.5,0.2,1.1,0.2,1.6,0.4c0.7,0.3,1.3,1.2,1.7,2
	c0.4,0.8,0.8,1.9,0.8,2.7c-1.9,0-4.1-0.3-6.2-0.6c-3.4-0.5-6.1-1.5-7.2-4.1c-0.1-0.3-0.3-1-0.4-1.4c0-0.6,0.3-1,0.3-1.5
	c0-0.8-0.2-1.7-0.4-2.4c-0.7-2.2-3-3.9-5.3-3.9c-2.8-0.1-5,1.8-5.7,3.5c-0.5,1-0.7,2.5-0.6,3.5c0.4,4.1,5.1,7.2,9.5,4.3
	c3.5,3.8,9.8,4.7,16.7,4.7c0.1,0.7,0.1,1.4,0.3,2c-4.2,1.6-8.1,3.3-11.6,5.5c-3.6,2.2-6.5,4.9-9.4,7.7c-1.4-1.3-1.2-3.6-1.4-5.4
	c-0.4-2.7-3-4.8-6.3-3.9c-0.5,0.2-0.8,0.5-1.3,0.5c-0.8,0.7-1.8,1.4-2.2,2.6c-0.7,2,0,5.3,1.1,6.5c0.2,0.3,0.8,0.7,1.2,0.9
	c1.4,0.7,3.1,0.4,4.9,0.2c1.1-0.2,2.1-0.6,3.1-0.3c-0.4,0.8-1.2,1.4-1.7,2.1c-0.6,0.7-1.1,1.5-1.7,2.2c-1.1,1.4-2.1,3.1-3.4,4.4
	c-0.9,0.9-2.3,1.7-3.8,2.3c-1.4,0.6-2.9,1-4.4,1c-1.6,0-3.4-0.5-4.5-0.9c-0.1,0-0.3,0-0.5-0.1c-1-0.3-1.8-0.7-2.6-1.2
	c-2.8-1.4-5.3-3-7.7-4.8c-0.6-0.4-1.3-0.7-1.5-1.1c-0.3-0.9,0.2-1.8,0.3-2.6c-0.5-0.2-1-0.2-1.4-0.3c-0.7-0.3-1-0.9-1.7-1.1
	c-0.2,0.4,0.1,1.2-0.2,1.6c-1.5-1-2.9-2.1-4.5-3c-1.6-0.9-3.2-1.8-5-2.6c-3.5-1.6-7.3-2.7-11.3-3.8c0-0.8-0.1-1.4,0.2-1.9
	c5.7-0.8,11.3-1.9,14.5-5.1c0.5-0.5,0.9-1.1,1.4-1.5c1.2,0.3,2.1,0.8,3.5,0.7c2.3-0.1,4.1-1.8,4.8-3.5c1.7-3.9-0.8-7.5-3.6-8.5
	c-3.1-1.2-6.5,0.4-7.4,3.3c-0.6,1.9-0.2,4,0.5,5.8c-1,0.9-1.4,2.1-2.4,3c-1.2,1.2-3.3,1.8-5.1,2.4c-0.9,0.3-2,0.5-3,0.8
	c-1.1,0.2-2.1,0.6-3.1,0.3c0.3-1.8,0.8-3,1.8-4.1c1.1-1,2.7-1.4,3.7-2.4c1-1,2-3.4,1.6-5.6c-1-3.8-5.9-5.6-9.1-3.4
	c-1.1,0.7-2.2,2.2-2.4,3.9c-0.2,1.8,0.4,3.6,1.2,4.6c0.8,0.9,2,1.3,3,2c-0.8,2.1-1.6,4.4-2.4,6.5c-0.3,0.7-0.3,1.6-0.9,2.1
	c-0.8-0.1-1.5-0.3-2.5-0.3c-1.9-1.9-3.5-4.1-5.3-6c-0.6-0.6-1.5-1.1-1.9-1.9c0.5-0.6,1-0.9,1.3-1.4c1.2-1.9,1.1-4.8,0.2-6.4
	c-0.8-1.4-2.5-2.9-4.1-3.3c-2.2-0.5-4.7,0.6-5.8,1.9c-2.9,3.5-0.7,9.8,4.1,10.3c0.8,0.1,1.9-0.2,2.3-0.2c0.5,0.1,1.1,0.9,1.5,1.3
	c1.1,1.2,1.8,2,2.6,3.1c0.3,0.5,0.9,1.1,0.8,1.8c-0.9,0.2-1.6,0-2.4-0.1c-0.8-0.1-1.7,0.1-2.6-0.1c-0.5-0.1-1-0.7-1.5-1
	c-1.4-0.9-3.4-2.1-5.5-2.1c-1.5,0-2.4,0.9-3.1,1.9c-0.1,0.2-0.4,0.5-0.4,0.7c-1,2.2-0.3,6.3,1.8,6.9c2,0.6,4-0.2,5.5-0.9
	c1.2-0.5,2.2-1.3,3.3-1.6c1.3-0.4,2.8-0.3,4.3-0.3c0.8,0,1.6,0.1,2.4,0.1c0.8,0.1,1.5,0,2.2,0.2c-0.9,1.4-2.1,2.4-3.6,3.4
	c-0.6,0.4-1.4,0.8-2.3,1.2c-0.5,0.3-1.8,1.2-2.4,1.2c-0.3,0-0.5-0.3-0.8-0.4c-2.4-1-5.2-0.4-6.9,0.9c-1.4,1-2.9,3.4-2.5,6.2
	c0.3,3.4,3.6,6,7.4,5.6c2.6-0.2,4.4-1.9,5.2-3.9c0.9-2.3,0.3-4.6-0.4-6.7c3.1-1.7,6.5-3.3,8.4-6c0.3-0.4,0.3-1,0.8-1.3
	c3.3,0.7,7.2,1.5,10,3c-0.5,1-1,1.8-1.7,2.8c-0.5,0.7-1.4,2-2.5,1.9c-0.4,0-1-0.5-1.4-0.7c-1.3-0.8-2.8-1.5-5-1
	c-0.7,0.1-1.2,0.4-1.7,0.6c-0.5,0.2-1.1,0.4-1.6,0.8c-1.1,0.9-1.8,3-1.7,5c0.2,4.3,4.9,5.9,8.9,4.7c1.7-0.5,2.9-1.6,3.3-3.1
	c0.3-1.4-0.1-2.9,0.3-4.3c0.5-1.8,2.5-3.6,4-4.5c0.5-0.4,1.3-1,1.9-1c0.4,0,1.1,0.4,1.6,0.7c1.7,0.9,2.9,1.7,4.3,2.7
	c-1.4,1.4-1.8,3.9-1.9,6.3c0,0.5,0,1,0,1.6c-0.1,1.7-1.4,4.5-3.1,4.6c-0.7,0-1.3-0.4-2.1-0.6c-1.2-0.2-3-0.4-4.3-0.4
	c-3.4,0.1-6.8,1-9.7,1.3c-0.7,0-1.5-0.4-2.3-0.6c-0.8-0.2-1.5-0.3-2.2-0.5c-3.7-0.8-8.1-0.5-8.5,3.3c-0.2,1.6,0.5,2.7,1.1,3.7
	c1,1.8,2.4,4.3,4.9,4.3c1.8,0,2.9-1.2,3.8-2.2c2-2,3-4.3,5.8-5.6c2.6-1.2,6.3-1.5,9.8-1.1c1.2,0.1,2.2,0.5,3.3,0.6
	c2.8,0.3,4.4-1.2,5.4-2.5c0.2-0.3,0.3-0.8,0.8-1.2c0.9,1.2,1.7,2.5,2.5,3.8c-1.1,2.1-1.9,4.5-1.9,6.9c0,2.4,2.4,4.5,4.2,5.1
	c2.3,0.7,4.5-0.3,5.7-1.5c0.9-1,2-2.8,2.1-4.3c0.2-2-0.8-3.2-1.8-4.1c-1.7-1.6-4.2-2.3-6.1-3.7c-2.2-1.5-3.7-3.3-4.5-5.5
	c-0.9-2.5,0.7-4.4,2.6-5.1c2.4,2,4.6,4.1,6.7,6.6c0.9,1.2,1.7,2.6,2.5,4.1c0.4,0.7,0.8,1.4,1.2,2.2c0.4,0.8,0.8,1.7,0.9,2.4
	c0.2,1,0,2.4-0.1,3.6c-0.4,7.2-0.5,13.9-1,20.8c-0.2,1.8,0.1,3.6-0.1,5.3c-0.2,2-0.3,4.4-0.4,6.6c-0.1,1.9,0,3.8-0.3,5.6
	c0,0.4-0.3,0.8-0.3,1.3c-0.2,1.5-0.1,3.1-0.2,4.7c-0.3,4.7-0.5,9.5-0.7,14.1c-0.2,5.5-0.5,11.2-0.7,16.6c0,0.7,0,1.5-0.2,2.2
	c-1.1-0.7-2.1-1.4-2.9-2.2c0.4-0.1,0.2-0.3,0.2-0.5c0.1-0.9,0-1.9,0-2.8c-0.2-2.5-0.6-4.8-1-7.1c-0.2-1.2-0.6-2.2-0.8-3.2
	c-0.9-3.1-2.1-6-3.5-8.7c-0.5-0.9-1-1.8-1.2-2.8c1.3,0.8,2.6,1.8,4.1,1.3c1.1-0.4,2-2.1,2.2-3.7c0.3-3.5-4.4-5-6.1-2.5
	c-0.7,1-0.7,3.6-2.4,3.4c-0.6-0.1-1.2-1.2-1.6-1.7c-1.2-1.4-2.1-2.3-3.2-3.4c-0.6-0.5-1.4-0.9-1.6-1.6c0.7-0.3,1.4-0.6,2.4-0.6
	c0.4,0.5,0.3,1,0.6,1.5c0.6,1,2,1.5,3,1.4c1-0.2,1.8-1,2.1-1.8c1.2-3.1-3-5.3-4.9-3c-0.2,0.4-0.2,0.8-0.7,1c-0.3,0.1-0.8,0-1.1,0.1
	c-1.2,0.1-1.9,0.4-2.9,0.7c-0.7-0.5-1.3-1.1-2.1-1.4c-0.4-0.9-1.8-0.7-1.9-1.6c-0.1-0.3,0.4-1.2,0.8-1.3c0.4-0.1,1.4,0.3,2.4,0.4
	c0.8,0.1,1.7,0.3,2.4,0.3c2.7,0.1,5.1-0.5,6.5-1.5c0.8,0.6,1,0.8,1.8,1.1c3,1,5.2-1.2,5.3-3.8c0.1-2.5-1.9-4.6-4.3-4.4
	c-2.5,0.2-3.7,2.4-3.7,5.2c-0.6,0.5-1.5,1.3-2.5,1.7c-0.1,0-0.2,0.1-0.2,0.1c-1.6,0.4-4,0-5.6-0.1c-0.5-0.1-1.3,0.1-1.6-0.4
	c0.7-1.3,1.4-2.1,2.8-2.5c0.7-0.1,1.7-0.1,2.1-0.5c2.8-1.7,2.5-5.9-0.5-7.1c-2.6-1-5.4,0.8-5.4,3.6c0,1.8,0.9,2.3,1.6,3.4
	c-0.5,0.9-1.2,1.6-1.9,2.5c-0.4,0.5-1.4,2.2-2,2.3c-0.5,0-1.4-0.7-1.6-1c-0.3-0.4-0.4-1-0.6-1.6c-0.6-1.6-1.4-3.2-2.1-4.6
	c0.6-0.5,1.2-0.6,1.6-1.1c1.5-1.6,1.5-4.6-0.2-6.2c-0.9-0.8-2.6-1.3-4-0.9c-1.5,0.5-2.9,2.3-2.8,4.3c0.1,2.3,1.9,3.7,4,4
	c0.7,1.5,1.6,3.1,1.7,5c-1.4-0.4-2.4-1.2-4-1.5c-1.1-1.1-2.8-3.4-4.9-3.4c-2,0-3.4,2.3-2.8,4.4c0.3,1.2,1.9,1.9,3.2,2
	c1.3,0.1,2.6-0.3,3.7-0.7c0.4-0.1,1.5,0.2,2,0.3c1.2,0.3,2.3,0.7,3.3,1.1c0.5,0.2,1.2,0.4,1.4,0.8c-1.6,1.3-4.1,1.7-6.6,2.1
	c-1.1-1.2-3.2-2.1-5.2-1.4c-1.2,0.5-2.6,2-2.9,3.4c-0.5,2.8,1.7,4.8,3.5,5.2c3.3,0.7,5.8-2,5.4-5.7c2.2-0.4,4.1-0.6,5.7-1.5
	c0.8-0.4,1.3-1.1,2-1.5c1.9,1.3,4.1,2.4,5.6,4.1c-0.5,0.5-0.9,0.9-1.6,1.3c-0.5,0.3-1.4,1.1-2.1,0.9c-0.4-0.1-0.9-0.8-1.1-1
	c-1.1-1.1-3-2.1-5.1-1.3c-1.8,0.7-2.9,3.5-1.9,5.4c0.6,1.3,3.5,3.1,5.9,2.2c1.4-0.5,1.5-2.2,2.2-3.4c0.9-1.7,2.8-2.3,5.2-2.9
	c0.9,0.8,2,1.9,2.7,3c0.2,0.3,0.2,0.7,0.4,0.9c0.2,0.3,0.5,0.5,0.7,0.9c0.7,0.9,1.1,1.9,1.6,3.1c0.9,2.2,1.5,4.7,1.9,7.3
	c0.4,2.8,0.3,5.6-0.2,8.2c-0.1,0.9,0,1.8-0.6,2.6c-2.3-1-4.4-2.4-6.6-3.4c-0.4-0.1-0.8-0.1-1.1-0.3c-0.4-0.2-0.9-0.6-1.3-0.9
	c-1.5-0.9-2.9-1.8-4.4-2.7c-2-1.2-3.8-2.5-5.6-3.8c-1.9-1.3-3.8-2.6-5.5-3.9c-1.7-1.4-3.3-2.8-5-4.4c-3-2.8-6.2-6.2-8.7-10.2
	c-1.1-1.8-2.3-4-3-6.4c-0.8-2.3-1.4-5.2-1.2-8.3c0.1-1.3,0.4-2.9,0.7-4c0.1-0.4,0.4-1.1,0.3-1.4c0-0.3-0.5-0.6-0.8-0.9
	c-0.7-0.7-1.2-1.2-1.8-1.8c-0.3-0.3-0.7-0.7-1.1-0.8c-2,5.1-2.4,12.6-1,18.8c1.3,5.1,3.2,9.7,5.3,13.7c0.4,0.6,0.9,1.1,1,1.9
	c-1.4,0.4-3.4,0.6-5,0.7c-1.6,0.1-3.5-0.1-5-0.3c-2-0.1-3.7-0.4-5.4-0.8c-5.8-1.4-10.2-3.5-14.7-6.1c-0.8-0.5-2.4-1.2-2.4-1.8
	c-0.1-0.2,0.2-0.6,0.3-0.9c0.9-2,2.4-2.7,4.9-2.2c2.3,0.5,3.8,1.4,5.3,2.6c2,1.6,3.4,3.9,5.5,4.9c0.8,0.4,2.1,0.8,3.2,0.5
	c2-0.5,3.8-2.5,4.4-4.3c0.4-1.2,0.4-2.7-0.1-3.9c-0.7-1.5-2.7-3.1-4.1-3.4c-0.3-0.1-0.5,0-0.8,0c-0.1,0-0.3-0.2-0.6-0.2
	c-1.3,0-2.7,1-3.8,1.6c-1.2,0.7-1.7,1.4-3.1,2.3c-0.6-0.3-1.3-0.5-2-0.8c-0.7-0.2-1.5-0.2-2-0.8c0.3-1.2,0.8-2.5,1.3-3.4
	c0.2-0.2,0.4-0.8,0.6-1c1-1.2,2.6-1.3,4.1-2.2c1.3,0.4,2.6,0.5,3.9,0.3c0.4-0.1,0.8-0.3,1.3-0.5c0.5-0.2,0.9-0.3,1.4-0.4
	c1.4-0.7,2.5-1.9,2.8-3.4c0.6-3.6-1.8-6.4-4.1-7.2c-1.2-0.4-2.5-0.5-3.7-0.1c-3.2,1.2-4.5,4.9-4.2,9.4c-0.5,0.6-0.9,1.1-1.8,1.3
	c-1-1.4-1.3-2.6-1.8-3.9c-0.9-2.5-1.6-6-0.7-9c0.5-1.6,1.6-2.8,2.3-3.9c0.9-1.3,2-2.6,2.2-4.2c0.3-2-0.8-3.1-2-3.7
	c-2.2-1.2-5.7-2.3-8-0.8c-1.6,1.1-1.9,3.6-1.2,5.7c0.6,1.8,1.3,3,2.1,4.4c0.4,0.7,1,1.2,1.3,2c0.4,1.2,0.4,2.8,0.6,4.3
	c0.5,3.7,1.1,6.9,2.7,9.5c0.4,0.5,0.7,1.2,0.7,1.7c0,1.3-1.7,2.8-2.8,3.4c-1.1,0.6-2.3,0.7-3.4,1.2c-0.9,0.4-1.9,0.8-2.6,1.2
	c-0.7,0.6-1,1.3-1.6,1.8c-1.2-0.6-1.6-1.2-2.5-2c-0.6-0.5-2.2-1.6-2.3-2.4c-0.1-0.5,0.4-1.5,0.6-2.3c0.7-2.3,2-4.1,3.6-5.1
	c0.5-0.3,1.2-0.3,1.6-0.5c1.4-0.5,2.6-1,3.4-2.4c0.5-1,0.6-2.6,0.5-3.5c-0.2-1.8-1.2-3.7-2.3-4.6c-0.5-0.5-1.8-1.2-2.6-1.3
	c-2.3-0.2-4.4,0.9-5.4,2c-0.9,0.9-1.5,3.4-1.1,5.3c0.2,0.9,0.8,2.2,1.3,2.8c0.4,0.6,1.8,1.2,1.9,2.1c0.1,0.6-0.3,1.3-0.5,1.7
	c-0.2,0.4-0.6,0.9-0.9,1.3c-0.4,0.5-1.8,2.2-2.3,2.2c-0.4,0-1.2-1.5-1.5-1.9c-1.5-2-2.9-4.4-3.9-6.6c0.7-0.7,1.4-1.4,2-2.2
	c0.6-0.8,1.2-1.6,1.8-2.5c0.6-0.9,1-1.9,1.5-2.9c0.4-0.9,0.9-1.9,1.4-2.8c3,0.1,5.4-1.8,6.3-4.1c0.8-2.2,0.3-4.5-0.7-6
	c-1.4-2.2-4.3-3.7-7.6-2.5c-3.2,1.2-5.2,5.4-3.3,9.3c0.3,0.5,1.2,1.2,1.2,1.9c0,0.2-0.2,1.1-0.2,1.4c-0.5,2.6-1.3,5.4-2.6,7.2
	c-0.2,0.3-0.5,0.8-0.9,0.8c-1-2-1.7-4.6-2.2-7.2c-0.1-0.8-0.5-1.9-0.4-2.7c0.1-0.5,0.5-1.1,0.7-1.6c0.7-2.1,0.8-5.1-0.3-7
	c-0.7-1.2-2.3-1.8-3.9-1.6c-2.6,0.3-5.3,2.3-4.1,5.8c0.4,1,1.2,2.2,1.8,3c0.4,0.4,0.7,0.8,1.1,1.2c0.4,0.5,1.1,0.8,1.2,1.2
	c0.2,0.4,0.3,1,0.4,1.5c0.1,0.5,0.3,1,0.5,1.5c0.4,1,0.9,1.9,0.9,2.8c-1.6-0.1-3.3-1-4.6-1.6c-0.7-0.4-2.1-0.9-2.5-1.4
	c-0.2-0.4-0.2-1.3-0.4-1.9c-0.9-2.6-4-4.5-7.3-3.6c-2,0.5-3.6,2-4.1,3.9c-0.8,2.6,0.4,4.7,1.8,5.9c0.3,0.2,0.5,0.5,0.8,0.6
	c2.1,1.3,5.5,0.9,7.3-0.5c0.7-0.7,1.1-1.7,1.7-2.3c2,1.1,4.5,2.4,6.7,3.4c0.8,0.4,1.9,0.6,2.4,1.1c0.2,0.2,0.4,0.8,0.6,1.1
	c0.2,0.4,0.5,0.8,0.5,1.3c-2.4,1.8-4.8,3.5-7.3,5.2c-0.7-0.6-0.9-1.1-1.4-1.5c-1.8-1.4-4.1-1.3-5.7-0.7c-1.6,0.6-2.8,2.1-3.3,3.8
	c-0.9,3.8,2.1,7,5.2,7.1c1.7,0.1,3.2-0.8,3.9-1.6c0.5-0.6,0.9-1.1,1.2-1.7c0.5-0.9,0.5-2,0.8-3.3c0.1-0.8,1.2-1.4,1.8-1.9
	c0.7-0.5,1.3-1.1,2.3-1.2c0.2,1.6,0.3,3.7,0.3,5.6c0,1.9,0.1,4.5-0.7,5.7c-0.7,1-2.1,2.5-3.4,2.8c-0.3,0-0.6-0.1-0.9-0.1
	c-2.4,0.1-4.5,1.8-5.3,3.6c-1.7,3.7,1.4,7.2,4.2,7.9c3.7,1,7.4-2,7.5-5.4c0.1-2.1-0.9-3-1.8-4.5c3.1-3.4,2.8-10.9,1.9-16.5
	c0.5-0.3,1.4-0.5,2-0.8c1,1.4,1.9,3,2.9,4.4c0.3,0.5,0.9,1.2,0.9,1.6c0,0.4-0.3,0.9-0.4,1.4c-0.5,1.4-0.8,2.8-0.9,4.5
	c-1.5,0.9-3,2-2.9,4.2c0.1,2.7,2.4,4.2,4.5,4c2-0.1,3.7-1.9,3.8-4c0-1.7-0.9-3.2-2.3-3.9c-0.6-0.3-1.2-0.1-1.7-0.7
	c0.2-1.5,0.5-2.9,1.5-3.7c0.8,0.9,1.5,1.9,2.4,2.8c0.8,0.8,1.6,1.8,2.4,2.7c1.8,1.7,3.7,3.2,5.4,4.9c-2.3,2.1-6,1.5-7.5,4
	c-0.5,0.8-0.6,1.9-0.6,2.8c0.1,2.3,1.9,4.4,4.1,4.8c1.5,0.3,3.3-0.2,4.6-1c1-0.5,2.1-1.7,2.2-2.9c0.2-1.7-0.4-3.1-0.9-4.3
	c-0.3-0.7-0.9-1.5-0.7-2.4c5.7,4,11.7,7.4,18.9,9.6c3.6,1.1,7.3,2.3,11.2,2.8c3.1,0.4,6.5,0.7,9.7,0.7c1.2,0,2.2-0.2,3.1-0.1
	c1.3,0.1,2.3,1.2,3.3,2c2.5,2.1,5.5,4,8.1,5.6c3.9,2.4,7.4,4.8,10.8,7.6c3.3,2.7,6.3,5.6,9.3,9.1c2.1,2.4,4.3,4.8,6.6,7.2
	c0.6,0.7,1.9,1.8,2.1,2.5c0.1,0.5-0.1,1.3-0.1,2.1c-0.1,3.8-0.3,7.3-0.5,10.5c-0.2,1.5,0,3-0.1,4.4c-0.3,3.5-0.4,7.6-0.7,11.2
	c-0.2,2.3,0,4.7-0.2,7.1c-0.4,7-0.7,14-1,21c-0.2,4.6-0.4,9.3-0.7,13.9c-0.3,3.5-0.6,7.1-0.7,10.4c-0.1,1.2,0.2,2.5-0.5,3.3
	c-2.2-0.8-4.2-1.9-6.5-2.7c-5.7-2.2-12-4.3-18.4-5.7c-0.9-0.2-1.8-0.4-2.6-0.8c-0.5-2.9-0.8-6.2-1.2-9.1c-0.2-0.9-0.8-1.9-0.2-2.7
	c1.4,0.3,2.4,1.1,3.4,1.8c1,0.7,1.8,1.6,2.8,2.4c1,0.8,1.6,1.8,2.3,2.9c0.7,1,1.1,2.3,1.8,3.3c0.2,0.3,0.5,0.4,0.8,0.7
	c1,1.2,1.9,2.4,3.3,3.1c0.4,0.2,0.9,0.3,1.3,0.4c3.3,0.8,5.6-1.1,7.5-2.4c0.8-1.1,2.1-2,2.3-3.8c0.1-1.4-0.2-2.7-0.6-4
	c-1-1.1-1.6-2.3-2.8-3.1c-0.8-0.6-1.9-1.2-3-1.3c-1.6-0.2-3.8,0.3-4.8,0.6c-1.2,0.3-1.9,0.6-2.9,1.1c-0.7,0.3-1.5,1-2.1,1
	c-0.5,0-0.8-0.5-1.3-0.8c-1.4-1-3.1-1.3-3.9-2.7c0.7-1.2,1.7-2,2.6-3.1c0.4-0.4,0.8-1,1.4-1.4c0.5-0.4,1.2-1,1.8-1.1
	c0.7-0.1,1.5-0.1,2.2-0.2c0.7-0.1,1.5-0.4,2.2-0.2c0.4,0.1,0.8,0.5,1.1,0.6c3.5,1.5,8.9,1,11.1-1.2c0.3-0.2,0.5-0.8,0.7-1
	c0.1-0.1,0.3-0.1,0.3-0.3c0.3-0.4,0.7-1.1,0.8-1.5c0.1-0.3,0-0.7,0-1c0-0.3,0.2-0.6,0.2-0.8c0-1,0-2.1-0.3-3
	c-0.1-0.5-0.5-0.9-0.8-1.4c-0.5-0.8-0.9-1.3-1.4-1.9c-0.7-0.7-1.3-1-2.3-1.4c-0.6-0.3-1.4-0.6-1.9-0.7c-2.1-0.3-3.8,0.3-5,1.1
	c-0.7,0.4-1.5,1.1-1.9,1.6c-0.4,0.5-0.6,0.9-1,1.4c-0.4,0.7-0.9,1.3-1.2,2c-0.3,0.7-0.5,1.5-0.8,2.5c-0.2,0.8-0.4,2-0.8,2.3
	c-0.5,0.4-1.3,0.5-2,0.4c-0.4-0.5-0.3-1.3-0.3-1.9c-0.1-1.8,0-3.5,0-5.5c0-3.2,0.2-6.9,1.1-9.4c0.4-1.1,0.7-1.6,1.5-2.1
	c0.3-0.2,0.6-0.4,0.9-0.6c0.6-0.4,1.3-0.6,1.9-1c0.6-0.4,1.5-1.2,2.1-1.7c0.7-0.7,1-1.2,1.6-2.2c0.3-0.5,0.7-1.2,0.7-1.7
	c0.2-0.8-0.1-1.8-0.2-2.1c-0.4-1.3-1.4-2.2-2.3-3c-0.3-0.3-0.6-0.5-1-0.7c-0.7-0.4-1.5-1.1-2.1-1.4c-0.7-0.3-1.5-0.3-2.4-0.6
	c-0.7-0.2-1.4-0.4-2.1-0.3c-1.4,0-3,0.5-3.8,1.1c-0.7,0.5-1.4,2.2-1.6,3.5c-0.2,1.7,0,3.1,0.2,4.4c0.1,0.7,0.2,1.4,0.4,1.9
	c0.4,1.6,1.3,2.8,1.6,4.4c0.3,1.7,0.2,3.5,0.1,5.5c-0.3,3.7-0.7,7.6-0.3,11.5c0.1,0.3,0.1,0.9,0.2,1.3c0.2,0.6,0.6,1.1,0.6,1.8
	c-0.1,1.2-1.2,2.8-2.6,3.5c-0.9,0.5-2.2,1.1-3.5,1c-1.5-0.2-1.3-2.1-1.7-3.7c-0.7-2.2-1.5-4.4-2.1-6.5c-0.4-1.1-0.8-2.1-1.2-3.1
	c-0.7-1.8-1.4-3.8-2.1-5.4c-0.1-0.2-0.4-0.5-0.4-0.6c-0.5-1-0.8-2.1-1.3-3.1c-0.2-0.5-0.6-0.9-0.9-1.3c-0.2-0.5-0.3-1.1-0.6-1.6
	c-0.2-0.3-0.5-0.6-0.7-0.9c-0.2-0.4-0.4-0.8-0.6-1.2c-0.7-1.1-1.3-2.3-2-3.3c-0.2-0.4-0.4-0.9-0.6-1.2c-0.5-0.7-1.3-1.2-1.5-2
	c0.4-0.5,1-1.2,1.7-1.2c0.8,0,1.4,1.1,1.9,1.4c0.3,0.2,0.7,0.3,1.1,0.5c1.4,0.7,4.1,1.3,5.9,0.5c1-0.5,1.8-1.7,2.3-2.7
	c0.5-1.1,1-2.7,1.1-4c0.2-2.7-1.1-4.8-2.8-6c-1.8-1.2-4.1-1.1-6.8-0.4c-0.5,0.5-1.2,1.2-1.7,1.9c-0.4,0.4-0.4,0.6-0.6,1.2
	c-0.2,0.4-0.3,0.9-0.4,1.3c-0.2,0.7-0.3,1.3-0.5,1.8c-0.1,0.3-0.3,0.5-0.4,0.8c-0.3,0.7-1,3.1-1.8,3c-0.5,0-0.8-1-0.9-1.2
	c-0.6-0.8-1.2-1.7-1.8-2.4c-0.8-0.7-1.4-1.4-2-2.3c-0.2-0.3-0.5-0.9-0.8-1.2c-0.1-0.1-0.4-0.2-0.6-0.4c-0.2-0.2-0.3-0.4-0.4-0.7
	c-0.4-0.4-1.1-0.6-1-1.2c0.1-0.6,1.4-1,2-0.9c0.6,0.1,1.1,0.8,1.8,1.2c1.2,0.6,2.9,1.2,4.4,0.4c0.8-0.4,1.7-1.5,2.1-2.5
	c0.5-1.4,0.8-3.4,0.2-4.7c-0.5-1-1.1-1.3-2.2-1.8c-0.9-0.5-1.7-0.8-2.9-0.7c-1.1,0.1-2.5,1-3,1.6c-0.5,0.6-0.6,1.9-0.8,2.8
	c-0.1,0.3-0.3,0.7-0.4,1.1c-0.4,1.1-1.1,2.8-2.1,2.7c-0.4,0-1-0.6-1.2-0.8c-0.5-0.4-0.8-0.8-1.1-1c-0.9-0.7-1.6-1.4-2.3-1.9
	c-0.8-0.6-1.6-1.2-2.4-1.8c-0.6-0.4-1.3-1-2-1.2c-0.2-0.1-0.6,0-0.9-0.2c-0.4-0.1-0.6-0.5-1.1-0.8c-0.3-0.2-0.8-0.5-1.2-0.7
	c-0.8-0.4-2-0.8-2.2-1.6c-0.2-0.6,0.5-2.6,0.8-2.8c0.6-0.4,1.4,0.1,2.2,0.1c0.6,0.1,1.1,0.1,1.6,0.2c2.7,0.4,5.3,0.2,7.8,0.2
	c1.5-0.1,3.2-0.4,4.4-0.7c1.2-0.3,2.9-0.6,3.6-1.1c0.6-0.4,1.1-1.2,1.8-1.2c0.6,0,1.1,0.8,1.7,1.2c0.4,0.3,0.8,0.4,1.2,0.7
	c1.8,0,3.6,0.3,5-0.2c0.9-0.3,1.4-1,2.2-1.2c1-1.1,1.6-2.2,2.1-3.6c0.1-0.4,0.4-0.8,0.4-1.1c0.4-2.3-0.4-4-1.1-5.5
	c-0.6-1.2-1.3-1.9-2.4-2.4c-2-1-4.1-1.8-6.5-0.8c-0.4,0.1-0.9,0.6-1.3,0.9c-0.9,0.6-1.4,0.8-1.9,1.7c-1,1.8-1.4,4-1.2,6.7
	c-0.2,0.3-0.6,0.5-0.9,0.7c-0.9,0.7-1.8,1.7-2.8,2.3c-1,0.6-2.5,0.7-4.1,0.9c-3,0.2-5,0.2-7.8,0c-1-0.1-2.6,0.1-2.8-0.5
	c-0.1-0.6,0.5-1.2,0.9-1.7c0.4-0.7,0.7-1.3,1-1.6c0.9-1,1.9-1.3,3.3-1.6c3.1-0.6,5-1.7,6.3-4c0.4-0.8,0.9-2.4,0.9-3.6
	c0-1.7-0.8-3.4-1.5-4.4c-0.7-1.1-1.2-1.2-2.5-1.8c-0.6-0.2-1.1-0.6-1.6-0.6c-1.9-0.4-3.5-0.1-4.8,0.4c-1.7,0.8-2.7,1.7-3.4,3.4
	c-1.2,2.6-0.7,5.7,0.8,7.7c0.3,0.4,1.8,1.5,1.7,2c0,0.7-1.2,1.2-1.5,1.7c-0.2,0.3-0.4,0.7-0.6,1c-0.7,1-1.3,2-2,3
	c-0.4,0.5-0.8,1.3-1.4,1.9c-0.2,0.2-0.5,0.5-0.8,0.9c-0.4,0.4-0.5,0.8-0.8,0.8c-0.4,0-0.7-0.5-1.3-0.8c-0.6-0.3-1.1-0.3-1.5-0.6
	c-0.5-0.6-0.7-1.9-1.1-2.7c-0.7-1.4-1.1-2.5-1.6-3.5c-0.9-1.4-1.5-2.8-2.2-4.1c-0.3-0.4-0.9-0.9-0.8-1.6c0.3-0.4,0.8-0.5,1.1-0.8
	c0.4-0.3,0.8-0.5,1.1-0.8c0.6-0.5,1.3-1.2,1.8-2c0.6-1.4,0.8-3.8,0.5-5.2c-0.2-0.9-0.4-1.3-0.7-1.9c-0.6-1.4-1.5-2.4-2.5-3.1
	c-0.6-0.4-1.3-0.8-2.1-0.9c-1.5-0.3-4-0.3-5.3,0.3c-0.6,0.3-1.7,1.3-2.2,1.9c-1.2,1.5-2.1,3.6-1.8,6.2c0.1,1.6,1,3.5,1.8,4.4
	c0.5,0.4,1.3,0.8,2,1.2c1.1,0.7,2,1.2,3.5,1c0.7,0.5,1,1.4,1.4,2.2c0.9,1.6,1.8,3,2.3,5c0.2,0.7,0.8,2.5,0.1,2.8
	c-0.3,0.1-1.2-0.4-1.5-0.5c-1.3-0.5-1.7-0.8-2.9-1.2c-0.5-0.2-1.4-0.3-1.7-0.6c-0.7-0.7-1.2-1.9-2-2.6c-1.2-0.6-2-1.5-2.9-2.2
	c-0.9-0.6-2.4-1.4-3.9-1.2c-1.5,0.1-2.7,1.5-3.4,2.4c-0.9,1.3-1.8,3.4-1.7,5.3c0,0.5,0.2,1.3,0.4,1.8c0.3,0.5,1.7,1.5,2.2,1.8
	c2.6,1.2,6.6,0.5,9-0.2c0.4-0.1,0.8-0.3,1.2-0.3c1.1-0.1,2.1,0.2,3,0.4c0.9,0.2,1.9,0.3,2.8,0.7c0.8,0.2,1.2,0.6,2.4,1
	c0.7,0.3,2.4,0.6,2.4,1.1c0.2,0.7-1.1,1.1-1.6,1.4c-0.7,0.4-1.3,0.8-2,1c-0.4,0.1-0.8,0.1-1.1,0.2c-1,0.2-1.8,0.4-2.5,0.6
	c-0.5,0.1-0.9,0.2-1.4,0.4c-0.7,0.1-2.2,0.6-2.8,0.5c-0.7-0.1-1.5-1.3-2.1-1.4c-1.6-0.3-2.9-1-4.8-0.9c-1.3,0.1-2.9,0.5-4.2,1.2
	c-1,0.5-1.8,1.5-2.3,2.5c-0.4,0.7-1,1.7-1.2,2.7c-0.5,2.6,0.3,5,1.3,6.5c0.8,1.3,1.6,1.7,2.9,2.4c1,0.5,1.6,0.7,2.9,0.9
	c0.5,0.1,1,0.3,1.4,0.3c0.8,0,2-0.4,3.1-0.8c1.8-0.7,3.2-1.8,4-3.2c0.5-0.9,0.8-1.7,0.9-2.9c0.1-0.3,0.2-0.6,0.2-0.9
	c0.1-1.2-0.3-2-0.4-3.3c1.2-0.4,2.6-0.7,3.5-0.9c0.3-0.1,0.6,0,0.9-0.1c0.8-0.2,1.7-0.6,2.3-0.9c0.4-0.1,0.9-0.2,1.2-0.3
	c1.5-0.7,2.3-1.3,3.8-2.1c0.7-0.4,1.3-1.2,1.8-1.2c0.4,0,1,0.7,1.5,0.9c0.7,0.3,1.6,0.3,2.2,0.7c0.3,0.1,0.6,0.4,0.9,0.6
	c0.4,0.2,0.6,0.4,0.9,0.6c0.6,0.4,1.2,0.8,1.9,1.3c0.2,0.2,0.5,0.4,0.8,0.7c0.3,0.2,0.8,0.3,1.1,0.5c0.2,0.2,0.4,0.5,0.7,0.8
	c0.5,0.3,0.9,0.3,0.9,0.7c0.1,0.6-0.9,1.1-1.4,1.4c-0.6,0.5-0.9,0.7-1.5,1.2c-0.7,0.6-1.6,1.4-2.4,1.6c-1.6,0.4-1.9-0.6-2.5-1.3
	c-1.1-1.2-1.7-1.5-3.4-2.1c-0.8-0.3-1.5-0.6-2.3-0.6c-1.6-0.1-2.6,0.1-3.9,0.5c-1.6,0.5-2.1,0.7-2.9,1.8c-0.7,0.9-1,1.7-1.3,2.8
	c-0.1,0.6-0.4,1.2-0.4,1.7c-0.2,1.4,0.3,3.1,1,4.2c0.9,1.4,2.3,2.4,3.8,3c0.4,0.2,0.9,0.5,1.3,0.6c0.4,0.1,0.8-0.1,1.2-0.1
	c0.6,0,1.1,0.2,1.6,0.2c2.5,0,3.9-0.6,5-2.1c0.3-0.4,0.7-1.1,0.8-1.5c0.4-1,0.4-2.1,0.9-3.2c0.2-0.3,0.7-0.7,0.7-1.1
	c1.2-1.3,2.9-2.7,4.7-3.4c0.7-0.3,1.3-0.7,1.9-0.9c0.3,0,0.7,0,1.1-0.1c0.3-0.1,0.6-0.4,0.9-0.3c0.4,0,1.1,0.7,1.5,1.2
	c0.5,0.5,1,1.2,1.2,1.5c0.5,0.5,1,0.9,1.4,1.4c0.5,0.6,0.9,1.1,1.3,1.5c0.5,0.4,1.4,0.7,1.3,1.6c-0.5,0.4-0.9,0.5-1.3,0.7
	c-1,0.7-1.8,1.5-2.6,2.4c-0.7,0.9-1.4,2-2.3,2.8c-0.1,0.7-0.6,1.1-0.8,1.7c-0.2,0.7,0,1.3-0.1,2.1c0,0.7-1.1,1.9-1.7,2.2
	c-0.2,0.1-0.7,0.2-1.1,0.3c-0.4,0.2-0.7,0.3-1.1,0.4c-1.5,0.4-2.2-0.4-3.7-0.9c-1.4-0.4-2.9-0.8-4.1-1.1c-0.9-0.3-1.8-0.5-2.7-0.7
	c-0.5-0.2-1-0.1-1.6-0.2c-0.4-0.1-0.7-0.4-1.2-0.4c-0.4,0-0.7,0.1-1.1,0c-0.4,0-0.7-0.3-1.1-0.4c-0.4-0.1-0.9-0.1-1.3-0.1
	c-0.4,0-0.7-0.2-1.1-0.2c-0.8-0.2-1.6-0.2-2.4-0.4c-0.9-0.2-1.5-0.9-2.2-1.4c-0.8-0.5-1.6-0.8-2.6-1.2c-1.3-0.5-2.5-1.2-3.9-1.7
	c-0.5-0.2-0.9-0.4-1.3-0.5c-3.1-0.5-5.2,0.6-6.4,2.6c-1.4,2.2-0.2,5.5,0.6,7.6c0.5,1.3,1,2.5,1.7,3.3c0.5,0.5,1.3,1.1,1.8,1.3
	c1.8,0.7,3.8-0.1,5.2-0.8c1.4-0.8,3-2.2,4-3.3c1-1,1.7-1.7,3.3-2c1.1-0.2,2.6,0,4.1,0.2c1.9,0.3,3.9,0.6,5.5,1
	c1.2,0.3,2.3,0.6,3.4,0.9c0.6,0.1,1.1,0.4,1.7,0.6c0.8,0.3,1.7,0.4,1.8,0.9c0.1,0.7-1.1,1.8-1.4,2c-0.7,0.1-1.6-0.1-2.2-0.1
	c-1.6,0-3.6,0.6-4.9,0.9c-0.5,0.1-1.1,0.2-1.5,0.4c-1.4,0.6-2.6,2.3-3.2,3.6c-0.5,1.1-0.5,2.7-0.3,3.9c0.2,1.1,0.3,1.5,0.7,2.3
	c0.6,1.2,1.7,2.5,2.7,3.1c0.8,0.5,1.8,0.6,2.9,0.7c0.9,0.2,1.8,0.3,2.9,0.1c0.6-0.1,1.3-0.2,1.8-0.3c1.4-0.4,2.2-1.6,2.8-2.7
	c0.4-0.8,0.8-1.6,1-2.4c0-0.3,0-0.7,0-1c0.1-0.4,0.4-0.8,0.5-1.2c0.1-0.6,0.1-1.2,0.1-1.8c0-0.8-0.4-1.5-0.4-2.3
	c0-0.7,0.4-1.6,0.7-2.2c0.6-1.3,1-2.3,2-3.1c1.6-1.3,3.5-2.4,5.8-2.9c0.5,1,0.9,2.8,1.3,4c0.2,0.5,0.5,1.1,0.4,1.5
	c-0.1,0.5-0.9,0.9-1.3,1.5c-0.2,0.3-0.6,0.9-0.9,1.5c-0.3,0.4-0.7,1-0.9,1.5c-0.3,0.5-0.4,1.2-0.7,1.8c-0.3,0.6-0.8,1.1-0.8,1.6
	c-0.1,0.4,0.1,0.8,0.1,1.2c0.1,1.5,0.2,1.9,0.6,2.9c0.6,1.3,1.2,2,2.3,2.8c0.8,0.6,1.6,1.4,2.7,1.5c2.1,0.4,3.7,0,5-0.9
	c0.9-0.5,1.6-1.3,2.5-1.8c0.2-0.6,0.9-0.9,1.2-1.4c0.2-0.4,0.5-1.2,0.6-1.8c0.5-2.4-0.6-3.9-1.5-5.4c-0.7-1.1-1.5-2.1-2.2-2.7
	c-1.2-1.2-2.7-2.2-3.7-3.6c-0.9-1.2-1.4-2.3-2-3.8c-0.6-1.4-1.4-3-1.2-4.9c0.1-0.6,0.4-1.7,0.8-2.3c0.3-0.5,0.9-0.7,1.4-1
	c0.8-0.4,1.4-0.7,2.4-1c0.5-0.2,1-0.5,1.4-0.4c0.3,0.1,0.5,0.6,0.9,1.2c0.4,0.5,0.8,0.8,1,1.2c0.4,0.6,0.8,1.4,1.2,2.2
	c0.4,0.8,0.8,1.7,1.2,2.5c0.4,0.8,0.9,1.5,1.2,2.4c0.4,0.8,0.8,1.7,1,2.6c0.9,2.7,1.5,5.7,2.1,8.6c0.2,1,0.4,2.1,0.5,3.1
	c0.2,3.1,0.5,5.7,0.4,8.9c-0.1,2-0.1,3.9-0.4,5.7c-0.1,0.5-0.3,1.1-0.3,1.7c0,0.3,0.1,0.8,0,1.1c-0.1,0.4-0.4,0.7-0.4,1.2
	c-0.1,0.3,0,0.7-0.1,1.2c0,0.3-0.1,0.7-0.2,1.1c-0.1,0.7-0.2,1.5-0.5,2.1c-1.3,0.1-2.7-0.3-4-0.5c-1-0.2-2.1-0.3-2.9-0.4
	c-1-0.2-1.8,0-2.8-0.1c-0.6-0.1-1.2-0.2-1.8-0.3c-2.4-0.4-4.7-0.9-6.7-1.2c-1.1-0.2-2.3-0.5-3.4-0.8c-2.3-0.5-4.5-1.1-6.7-1.7
	c-2.1-0.6-3.9-2-5.9-2.4c-1.7-1-3.5-1.6-5.2-2.5c-1.8-0.9-3.6-1.7-5.2-2.6c-2.1-1.2-4.2-2.5-6-3.8c-0.4-0.3-0.8-0.5-1.2-0.8
	c-0.5-0.4-1-1-1.6-1.3c-0.6-0.4-0.9-0.7-1.3-1.2c-0.3-0.3-0.6-0.4-0.9-0.7c-2.8-2.4-5.1-5.3-7.3-8.2c-4.2-5.7-7.1-12.6-8.7-20.8
	c-0.1-0.5,0-1-0.2-1.4c-0.2-0.5-0.9-0.7-1.1-1.2c-0.1-0.2-0.1-0.5-0.2-0.8c-0.5-1.7-1.1-3.3-1.7-4.9c0.4-0.6,0.8-1,0.8-1.9
	c0.9-1.2,1.3-2.6,1.8-4.1c0.5-1.5,1.1-3,1.4-4.6c-0.4-0.1-0.8,0.5-1.1,0.8c-0.3,0.3-0.7,0.7-1,1c-1.6,0.9-3.6,1.9-6.1,2.4
	c-2.4,0.5-5.4,0.8-8.1,0.3c-0.6-0.1-1.3-0.5-2.1-0.4c0,0.8,0.6,1.2,1.1,1.7c0.5,0.5,0.9,0.9,1.4,1.4c1.4,1.3,2.6,2.5,4.7,2.9
	c0.5,0.1,1.2,0,1.6,0.4c-0.4,0.7-2,0.1-2.3,0.8c0.2,0.9,1.2,0.9,1.8,1.2c0.1,0.3,0.1,0.7,0.3,1c1.6,1.9,2.7,4.3,3.8,6.7
	c-0.1,1,0.3,2.6-0.2,3.2c-0.9-0.1-1.7-0.6-2.5-1c-2-0.9-4.1-1.6-6.1-2.4c-1.4-0.5-2.5-0.9-3.8-1.3c-2.3-0.6-4.5-1.3-7-1.5
	c-0.5-0.1-1.1,0-1.5-0.4c0.1-0.6,0.9-0.7,1.3-1c0.5-0.3,1-0.6,1.5-0.9c1-0.6,2-1.5,2.5-2.4c1.6-2.9-1.5-6.6-3.6-7.5
	c-1.8-0.7-3.9-0.1-5,0.7c-1,0.8-2,2.1-2,3.5c-0.1,3.2,3.2,4.5,3.4,7.5c-0.5,0.2-1.1,0.2-1.7,0.2c-1.9,0.1-3.9,0.3-5.8,0.5
	c-1.2,0.1-2.4,0.3-3.6,0.5c-1.2,0.3-2.4,0.7-3.4,0.6c-0.1-0.8,0.2-1.3,0.4-2c0.2-0.5,0.4-1.4,0.8-1.6c0.3-0.1,0.8,0.2,1.3,0.3
	c0.4,0.2,1,0.4,1.4,0.4c0.7,0,1.5-0.3,2.1-0.7c1.2-0.7,2-2.4,1.9-3.7c-0.1-1.9-1.6-3.6-3.2-3.9c-2.9-0.7-5.3,1.7-5.3,4.1
	c0,0.8,0.5,1.6,0.8,2.4c-1,1.7-1.9,3.5-2.6,5.5c-1,0.4-2,0.8-3.1,1.1c-0.5,0.2-1,0.4-1.5,0.5c-0.5,0.2-1,0.6-1.5,0.4
	c0.1-0.7,0.7-1.1,1-1.6c1.8-2.6,3.5-5.3,4.7-8.4c0.5-1.2,1-2.6,1.2-4.1c0-0.5-0.1-1.1,0.2-1.7c2.9-0.5,5.3-3,5.1-6.1
	c-0.1-2-1.4-3.9-2.9-4.8c-0.9-0.6-2.1-1-3.4-1c-1,0-1.8,0.5-2.9,0.7c-0.5,0.8-1.3,1-1.8,1.6c-0.1,0.2-0.2,0.5-0.4,0.8
	c-0.1,0.3-0.3,0.5-0.4,0.7c-0.8,1.8-0.3,3.8,0.6,5.3c0.6,0.8,1.4,1.2,1.9,1.9c0.8,0.9,1.1,2.7,1,4.1c-0.1,0.9-0.7,1.8-1.3,2.7
	c-1.1,1.8-2.2,3.2-3.5,4.6c-0.6,0.7-1.2,1.5-2.1,1.9c-0.8-1.3-1.7-3.2-1.3-4.8c0.1-0.4,0.4-0.7,0.6-1c0.9-1.6,1.5-3.7,0.6-5.7
	c-0.5-1.1-1.5-2.1-2.7-2.7c-3.8-1.8-8.1,1.4-8.3,4.8c-0.1,2,1,3.9,2.2,4.8c1,0.7,2.3,1.5,4.1,1.3c0.5,0,0.9-0.4,1.3-0.2
	c0.5,0.2,0.5,1.3,0.7,2c0.3,0.8,0.6,1.6,0.8,2.1c0.4,1.7,0.8,2.9,1.1,4.5c-0.3,0.3-0.8,0.4-1.1,0.6c-0.4,0.2-0.9,0.5-1.3,0.5
	c-0.6,0-1.6-0.4-2.4-0.6c-1.7-0.4-3.4-0.8-5-1.1c-0.8-0.1-1.9,0.1-2.4-0.6c0.5-2.5-0.6-4.7-1.8-5.9c-0.1-0.1-0.3-0.3-0.4-0.3
	c-0.2-0.1-0.6-0.4-0.8-0.5c-1.4-0.8-3.4-1.1-5.1-0.5c-0.9,0.2-1.4,0.6-2,1.1c-1.3,0.9-2.2,2.7-1.9,5c0.6,4.1,5.4,6.8,9.2,4.7
	c0.7-0.4,1.4-1.4,2-1.5c0.2-0.1,0.6,0.1,0.9,0.1c1,0.2,1.9,0.3,2.8,0.6c0.7,0.1,3.1,0.7,3.1,1.3c0,0.5-0.6,0.6-1.2,1
	c-1.4,0.8-2.7,1.9-3.8,2.5c-1.7,0.1-4,0.4-5.5,1.1c-0.6,0.3-1.4,0.7-1.8,1c-0.2,0.1-0.3,0.5-0.5,0.8c-0.2,0.3-0.4,0.4-0.6,0.6
	c-1.1,2.5,0.7,4.8,2.1,5.9c0.5,0.3,0.9,0.7,1.4,0.7c1,0.2,1.5,0,2.1-0.2c0.9-0.4,1.1-0.7,1.7-1.3c0.3-0.3,0.8-0.5,1-0.8
	c0.8-0.9,1.4-2,1.8-3.3c0.1-0.4,0.1-1,0.3-1.4c0.3-0.6,1.2-1.2,1.8-1.8c1.8-1.6,3.5-2.7,5.4-3.8c0.3-0.2,0.7-0.7,1.1-0.5
	c0.3,0.8,0,1.8-0.2,2.7c-0.4,1.9-1.1,3.2-1.8,4.8c-0.3,0.7-0.7,1.8-1.2,2.1c-0.4,0.3-0.9,0.2-1.3,0.4c-0.4,0.1-0.7,0.5-1.2,0.4
	c-1.2,0.8-2.1,1.7-2.7,2.9c-1.8,3.6-0.1,7.5,2.7,8.8c0.5,0.3,1.3,0.6,1.9,0.7c2,0.3,3.6-0.4,4.9-1.3c1.2-0.8,2.5-2.6,2.7-4.3
	c0.3-1.9-0.2-3.7-0.9-4.7c-0.4-0.6-1.7-1.5-1.8-2.2c0-0.3,0.2-0.8,0.4-1.3c0.1-0.4,0.2-0.9,0.3-1.3c0.6-3,1.2-6,0.5-9.1
	c0.9-0.8,2.2-1.2,3.2-1.6c1.2-0.5,2.4-1,3.6-1.4c0.8-0.3,1.7-0.5,2.5-0.6c0.6,0.7,0.5,2.2,0.5,3.5c0,1.2-0.1,2.6-0.9,3
	c-3.2,0.1-5.2,1.2-6.6,3.2c-0.6,0.9-1.2,2-1.2,3.2c0,1.4,0.8,2.8,1.6,3.7c1.1,1.4,2.4,2.4,4.8,2.1c1.5-0.2,2.7-1,3.8-2
	c0.6-0.4,1-0.8,1.4-1.4c0.4-0.6,0.8-1.3,0.9-2c0.2-1.6-0.5-2.7-1.1-3.8c-0.5-0.8-1.1-1.4-1.4-2.2c-0.2-0.7-0.2-2.1-0.2-3
	c0.2-1.8,0.7-3.6,2-5.1c0.9,0,1.9-0.1,2.8-0.3c1.1-0.1,2.2-0.2,3.2,0.1c0,2.1,0.6,3.4,1.5,5c0.6,1,1.3,1.8,1.8,2.6
	c0.6,1.1,1.1,3.3,0.4,4.6c-0.3,0.6-1.2,0.8-2,1.1c-1.2,0.5-2,1-2.9,1.5c-0.9,0.5-1.8,1.3-2.5,1.9c-1.1,1-2.4,2.1-3.3,3.2
	c-0.5,0.6-1.3,1.2-2,1.7c-0.2,0.3-0.5,0.5-0.8,0.7c-0.6,0.3-1.5,0.5-2.2,0.7c-0.7,0.3-1.4,0.6-2.1,0.9c-1.1,0.5-2,1.1-2.7,1.8
	c-0.8,0.7-1.5,1.4-1.9,2.5c-0.3,0.8,0,2.1,0.2,2.6c0.7,1.6,2.6,2.6,4.4,3.3c1.1,0.4,2.7,0.8,3.9,0.6c1.2-0.2,2.3-1.6,2.7-2.6
	c0.7-2,0.4-4.2,0.6-6.3c0.2-2.1,1-3.4,2.1-4.9c1.7-2.2,3.4-3.4,5.6-4.7c0.8-0.4,1.5-1.1,2.3-1.1c0.1,0.8-0.5,1.3-0.8,1.9
	c-0.7,1.7-1.5,4.6-1.6,6.6c0,2.1,0.9,3.8,2,4.8c0.2,0.2,0.6,0.3,1,0.5c0.3,0.2,0.7,0.5,0.9,0.6c0.2,0.1,0.6,0,0.8,0.1
	c1.2,0.2,2.4,0.1,3.2-0.2c1.4-0.6,2.3-1.3,3.1-2.4c0.6-0.9,1.3-2.4,0.9-3.8c-0.6-2.2-2.2-4.3-3.8-5.3c-0.4-0.2-1-0.3-1.4-0.6
	c-0.3-0.2-0.6-1-0.9-1.4c-0.5-0.9-1.1-1.6-1.1-3c0-1,0.7-4.5,1.3-4.6c0.6-0.2,1.3,0.4,2,0.6c0.8,0.3,1.6,0.3,2,0.7
	c0.5,0.3,0.4,1.6,0.5,2c0.2,1.1,0.7,1.9,1.2,2.8c0.4,0.8,1.1,2.2,1.8,2.6c0.9,0.6,2.4,1.2,4.3,1c0.7-0.1,1.7-0.3,2.3-0.7
	c0.4-0.3,1-0.6,1.4-1c2-2.1,1.6-7.5-1.1-9.1c-0.3-0.2-1-0.5-1.4-0.6c-2.4-0.7-5.4,0.5-7.7,0.6c-1.3,0.1-3.3-0.4-4.2-0.7
	c-0.2-0.1-0.5,0-0.7-0.1c-0.2-0.1-0.4-0.3-0.7-0.4c-1.5-0.7-2.9-1.4-3-3.3c-0.1-0.9,0.2-2.4,0.7-2.6c0.5-0.2,1.7,0.1,2.7,0.3
	c1.5,0.3,2.6,0.6,3.9,0.9c0.4,0.1,0.8,0.3,1.2,0.4c2.4,0.7,4.8,1.7,6.8,2.7c0.4,0.2,0.6,0.5,0.9,0.7c0.4,0.2,0.7,0.3,1.1,0.5
	c2.1,1.2,3.8,2.5,5.7,4c2.4,2.1,4.5,4.1,6.4,6.4c2,2.4,3.7,5.1,5.2,7.6c1.6,2.7,3.4,5.1,5.3,7.5c0.5,0.5,0.9,1.2,1.4,1.7
	c0.4,0.6,1,1.1,1.6,1.7c2.1,2.2,4.2,4.3,6.6,6.3c1.8,1.4,3.8,2.7,5.6,4c0.8,0.6,1.4,1.4,2.2,1.8c0.5,0.3,1.1,0.4,1.7,0.8
	c2.1,1.1,4.1,2.4,6.2,3.4c1.7,0.9,3.8,1.7,5.6,2.4c1.2,0.4,2.3,1,3.5,1.4c1.6,0.6,3.3,1,5,1.4c3.6,0.7,6.9,1.8,10.3,2.5
	c0.9,0.2,1.7,0.4,2.5,0.7c0.9,0.2,1.9,0.3,2.7,0.6c0.4,0.1,0.7,0.3,1,0.4c0.4,0.1,0.8,0.1,1.2,0.2c2.2,0.6,4.5,1.2,6.7,1.9
	c0.3,0.1,0.7,0.3,1,0.4c0.4,0.1,0.8,0.2,1.2,0.3c1.5,0.5,3,0.9,4.2,1.5c0.6,0.3,1.1,0.8,1.7,1.1c0.5,0.2,0.8,0.2,1.5,0.6
	c-0.6,2.7-1.8,5.2-2.9,7.5c-0.5,1.2-1.3,2.3-1.9,3.3c-0.7,1-1.4,2.1-2.1,3.1c-3.1,3.9-6.5,7.4-10.9,9.9c-1.3-0.8-1.9-1.6-2.1-3.1
	c-0.1-0.7,0.6-1.8,0.9-2.3c1.2-1.7,3.5-3.2,5.3-3.9c1.6-0.6,3.2-0.9,4.7-1.5c1.6-0.7,3.3-1.8,3.5-3.7c0.4-3.3-1.7-6.3-4.2-6.9
	c-3-0.7-6.1,1.3-6.7,3.7c-0.4,1.6-0.2,3.3,0,4.8c0.1,0.5,0.5,1.6,0.5,1.9c-0.1,0.6-0.9,1.1-1.5,1.7c-0.4,0.5-1.1,1.4-1.7,1.4
	c-0.3,0-1.3-1.2-1.7-1.8c-1-1.3-1.8-2.5-1.5-4.7c0.1-0.5,0.1-1.2,0.2-1.4c0.2-0.5,0.6-1,0.9-1.4c0.8-1.3,1.5-3,1.5-5.2
	c-0.1-3-3-5-6.2-4.9c-2.9,0.2-5.3,2.6-5.4,5.3c-0.1,3.5,3.1,5.7,5.2,6.8c0.3,0.2,0.8,0.2,0.9,0.7c-0.5,0.9-1.1,1.1-1.8,1.3
	c-2.2,0.4-4.4,0-6.1-0.6c-1.7-0.6-3.1-1.5-4.1-2.7c-1-1.1-1.8-2.9-2.6-4.3c-0.8-1.5-2.2-3.9-4.8-3.4c-1.9,0.3-4.8,3.6-5.5,5
	c-0.6,1.5,0,3.3,0.6,4.1c1.5,1.7,4.5,2,7.6,1.8c1-0.1,2-0.3,3-0.2c1.1,0.1,2.3,0.7,3.5,1.2c2.8,1,6.1,2.4,9.4,2.2
	c0.8-0.1,1.5-0.3,2.1-0.1c1.3,0.4,1.8,2.6,1.9,4.4c0,0.9-0.4,1.9-0.4,2.8c-0.1,1-0.2,2-0.1,2.9c0.1,1,0.6,1.4,0.9,2.3
	c-1.3,0.7-2.7,1.2-4.2,1.7c-0.5,0.2-1.1,0.5-1.5,0.5c-0.4,0-1.2-0.8-1.5-1.1c-1.2-1.1-2.6-3-3-4.8c-0.4-1.8,0.6-3.3,0.3-5.1
	c-0.2-1.5-1.3-2.4-2.6-3c-1.2-0.6-2.5-1-4.1-0.9c-1.9,0.1-3.8,1.4-4.4,2.9c-0.5,1.1-0.7,2.5-0.3,4.1c0.4,1.7,2.2,3.2,3.7,3.7
	c1.6,0.6,3.3,0.3,4.5-0.1c0.5-0.1,0.9-0.5,1.4-0.4c0.8,0.1,1.6,1.4,2,2.1c0.6,1.1,0.8,2.2,1.2,3.2c-1.3,0.6-2.9,0.7-4.7,0.9
	c-0.8,0.1-1.8,0.1-2.6,0.2c-0.9,0.1-1.7,0.1-2.5-0.2c-0.3-0.4-0.4-0.9-0.6-1.3c-1-2.4-2.5-3.9-4.5-5.5c-0.4-0.3-2-1.5-2.1-1.9
	c0-0.3,0.4-0.7,0.5-1c0.5-0.8,1-1.9,1.1-2.8c0.9-5.4-4.5-8.2-8.5-6.5c-1.6,0.7-2.6,1.7-3.2,3.2c-0.9,2.2-0.3,5,1,6.6
	c1.1,1.2,2.9,2.3,5.2,2.3c0.6,0,1.3-0.4,1.9-0.3c0.5,0.1,1.5,1,2,1.4c0.8,0.6,1.4,1.2,1.9,1.7c0.9,0.9,1.7,1.8,2.3,2.9
	c0.2,0.3,0.6,0.8,0.4,1.2c-3.3-0.2-6.8-1-9.6-2c-1.5-1.8-4.5-4.5-7.7-4c-2.4,0.4-3.9,4.5-2.7,6.7c1.1,2.1,4.1,2.3,6.8,1.7
	c1.1-0.2,1.9-0.8,2.8-0.8c0.7-0.1,2,0.3,3,0.4c1.1,0.1,2.1,0.1,2.9,0.5c-0.5,1.2-1.5,1.7-2.5,2.6c-0.4,0.3-0.9,0.7-1.4,1.1
	c-0.5,0.4-1.1,1-1.6,1c-0.6,0-1-0.4-1.5-0.5c-4-0.7-7.2,3-6.9,6.6c0.2,2.3,2.4,4.7,4.7,4.9c3.2,0.4,5-1.4,6-3.3
	c0.3-0.5,0.5-1,0.6-1.5c0.4-1.9-0.3-3.6-1.2-5c1.2-1,2.5-1.8,4.1-3c0.6-0.4,1.2-1,1.9-1.5c0.6-0.4,1.4-1.4,2-1.5
	c0.4-0.1,0.9,0,1.3,0c0.3,0,0.7,0,1.1,0.2c0.5,2.8,1,5.6,1.2,8.5c-2.6,0.7-4.2,2-4.8,4.4c-1,4.4,3.8,8.2,7.7,6.2
	c1.2-0.6,2.2-1.8,2.7-3c1-2.3-0.1-4.9-1.6-6.2c-0.5-0.5-1.1-0.8-1.6-1.4c-0.8-1-1.3-2.8-1-4.5c0.9,0.1,1.8,0.6,2.7,1
	c1.8,0.8,3.5,1.5,5,2.6c0.8,0.5,1.6,1.1,2,1.7c0.2,0.4,0.4,1.1,0.7,1.7c0.3,0.5,0.7,1,0.7,1.4c0,0.7-0.7,1.3-0.8,1.6
	c-0.3,0.7-0.5,1.7-0.6,2.4c-0.2,3.2,2.3,5.5,4.9,5.7c3.1,0.2,5.3-2.1,6-4.1c1.2-3.6-1.3-7.9-5.7-7.5c-0.4,0.1-0.8,0.3-1.3,0.2
	c-0.7-0.9-1.1-1.9-1.9-2.7c-0.7-0.7-1.6-1.4-2.5-2c-1.3-1-2.8-1.7-4.4-2.5c-1.1-0.5-2.2-0.8-3.3-1.2c-0.5-0.2-1.1-0.4-1.5-0.8
	c-0.1-0.5,0-1.4,0.3-1.8c1.9-0.4,3.6-0.4,5.3-0.6c0.3-0.1,0.9-0.3,1.3-0.3c0.4,0.1,0.8,0.6,1.2,1c0.8,0.9,1.4,1.4,2.4,2
	c0.4,0.3,1,0.7,1.2,1c0.2,0.5,0,1.1,0.1,1.6c0,0.2,0.2,0.5,0.3,0.7c1.8,3.8,7.7,2.5,7.7-1.7c0-1-0.4-2-0.9-2.5c-0.8-1-2.7-2-4.6-1.4
	c-0.4,0.2-0.8,0.5-1.3,0.8c-0.2,0.2-0.5,0.7-1,0.7c-0.4,0-1.2-0.7-1.5-1c-0.5-0.5-0.9-0.9-1.1-1.5c0.9-0.4,2-0.6,3.1-0.8
	c2.7-0.6,5.2-1.4,7.7-2.4c0.5-0.2,1.1-0.5,1.5-0.5c0.6,0.1,1.2,0.9,1.3,1.4c0.4,1.6-0.6,2.7-0.5,4.3c0.2,2.9,3.3,4.7,6.1,4
	c1.4-0.3,2.7-1.5,3.2-2.9c0.3-0.8,0.6-1.9,0.6-2.8c0.1-3.4-2.4-4.5-5.5-4.3c-0.4,0-0.9,0.2-1.3-0.1c0.4-0.5,1.1-0.8,1.6-1.2
	c1.8-1.2,3.4-2.3,5-3.5c5.3-4,10.5-8.5,14.3-13.9c0.8-1.1,1.4-2.4,2.5-3.2c0.9,0.4,1.8,0.9,2.6,1.4c1,0.6,1.8,1.1,2.6,1.7
	c0.8,0.6,1.8,1,2.6,1.6c0.4,0.3,0.7,0.7,1.1,1c0.4,0.3,0.9,0.5,1.3,0.8c1.5,1.2,3,2.5,4.4,3.9c1.4,1.5,3,2.9,3.9,4.5
	c0.3,0.5,0.6,1,0.7,1.5c0.3,0.9,0.2,2.2,0.1,3.3c-0.2,1.6-0.3,3.6-0.4,5.4c-0.1,1.5-0.2,2.9-0.3,4.4c-0.3,6.1-0.6,12.2-0.9,18.1
	c-0.1,3.1-0.1,6.2-0.4,9.2c-0.1,1.6-0.1,3.7-0.2,5.4c-0.1,1.6-0.3,3.1-0.3,4.6c-0.4,8-2.1,14.6-4.3,20.6c-0.9,2.4-2,4.7-3.1,6.9
	c-1.1,2.2-2.2,4.4-3.5,6.4c-2.6,4-5.6,7.8-8.9,11c-1.7,1.7-3.5,3.2-5.2,4.8c2,2,4.3,4.5,6.3,6.8c0.5,0.6,1.5,2.1,2.2,2.2
	c0.4,0.1,1.9-1.1,2.7-1.5c2.9-1.6,5.7-3.3,8.2-4.7c4.5-2.6,9.3-5.1,15.2-6.2c1.3-0.3,2.6-0.5,3.9-0.4c5.3,0.1,8.5,3.1,10.3,6.9
	c3.2,7.1,2.2,17.8,1.2,25.8c-0.1,0.9-0.4,1.7-0.2,2.6c0.4-0.1,0.6,0,0.9,0c0.2,0,0.1-0.2,0.3-0.2c0.2-0.1,0.5-0.1,0.6-0.1
	c2.4,0,5-0.3,7.5-0.4c2.5-0.1,5-0.1,7.1-0.6c-0.4-9.7,1.4-19.6,11.9-17.3c3.2,0.7,6.1,2.2,8.8,3.5c2.8,1.4,5.4,3,8.1,4.4
	c4.9-3,9.7-6.4,14.4-9.3c0.3-0.2,0.8-0.3,1-0.6c-5.4-2.9-10.4-5.7-15.2-8.8c-4.8-3.1-9.3-6.6-13.1-11c-3.8-4.4-6.5-9.5-8.4-15.4
	c-1.5-4.6-2.2-9.8-2.7-15.3c-0.6-6.7-0.7-14-1.1-20.9c0-0.3-0.2-0.5-0.2-0.8c0-0.3,0.1-0.7,0.1-1c0-0.3-0.2-0.6-0.2-0.9
	c-0.1-1.9-0.1-3.8-0.2-5.7c-0.4-4.9-0.3-9.6-0.6-14.2c0-0.3-0.1-0.6-0.2-0.9c0-0.3,0.1-0.7,0.1-1c0-0.3-0.1-0.6-0.2-0.9
	c-0.1-1.5,0-3.1-0.1-4.7c-0.2-1.7-0.4-3.3-0.4-4.9c0.1-1,0.4-2,0.7-3c1-3,2.2-5.4,4-7.4c3.1-3.6,6.3-6.3,10-8.8
	c1.8-1.3,3.8-2.6,5.8-3.6c2.1-1.1,4.1-2.3,6.2-3.2c1.8-0.7,3.5-1.7,5.4-2.2c1.7,2.2,3.1,4.4,4.9,6.5c1.9,2.3,4.3,4.4,6.4,6.4
	c2.8,2.6,5.8,4.8,8.8,7c0.5,0.4,1.1,0.8,1.7,1.2c0.5,0.3,1.5,0.6,1.6,1.2c-3.4-0.6-6.4,0.4-6.8,3.3c-0.2,1.9,0.4,4.5,1.7,5.6
	c0.9,0.8,2.4,1.4,4.1,1.3c2.2-0.2,4.1-2.1,4.2-4.2c0-1.3-0.9-2.7-0.5-4.3c0.2-0.6,0.7-1.2,1.4-1.3c0.4,0,0.9,0.3,1.4,0.6
	c0.5,0.2,1.1,0.3,1.5,0.5c2.6,0.9,5.2,1.7,7.8,2.3c0.5,0.1,1.2,0,1.5,0.5c-0.6,1.2-1.5,2.1-2.8,2.6c-0.8-0.5-1.3-1.2-2-1.5
	c-2.8-1.2-5.8,1.1-5.8,3.9c0.1,1.9,1.7,3.6,3.3,3.9c2.9,0.6,5-1.8,4.9-4.7c0.9-0.5,1.6-1.1,2.5-1.8c0.5-0.4,1.7-1.9,2.3-2
	c0.3,0,0.7,0.1,1.2,0.2c1.8,0.2,3.8,0.3,5.6,0.7c0.1,0.6,0.3,1.3,0.2,1.9c-1.4,0.7-2.8,1.1-4.1,1.6c-2.7,1.1-5.2,2.5-7.1,4.3
	c-0.5,0.4-1,1-1.3,1.5c-0.4,0.5-0.7,1.2-1.2,1.8c-3.6-1.1-6.7,1.1-7.3,4c-0.7,3.6,1.7,6.4,4.1,7.1c3.3,1.1,7.4-1,7.3-5.4
	c0-0.7-0.3-1.8-0.6-2.5c-0.2-0.6-0.9-1.1-0.9-1.7c0-0.4,0.5-1,0.7-1.5c0.2-0.6,0.5-1.2,0.7-1.5c0.4-0.7,1.3-1.2,2.1-1.8
	c0.8-0.6,1.6-1.1,2.5-1.4c1.9-0.9,3.8-1.9,5.5-2.3c0.3,0.9,0,1.7-0.1,2.4c-0.2,0.8-0.4,1.5-0.9,2c-0.9,1.2-2.3,1.8-3,3
	c-2.3,3.9,1.1,8.5,4.9,8.4c2.8-0.1,5.5-2.3,5.5-5.3c0-1.4-0.4-2.3-0.9-3.1c-0.6-1.1-1.4-1.8-2.4-2.3c-0.5-0.3-1.3-0.2-1.8-0.7
	c0.5-2.8,0.7-5.9,1.4-8.5c0.4-0.3,1.7,0.1,2.3-0.2c2,1.5,4,3.2,6,4.6c0.7,0.5,1.5,0.8,2,1.5c-0.2,0.7-0.8,1.1-1,1.9
	c-1.3,3.8,1.6,7.5,4.4,8c1,0.2,2.4,0.2,3.4-0.3c0.4-0.2,0.8-0.7,1.4-0.9c1.4-1.6,2.4-3.2,1.8-5.9c-0.3-1.2-1.4-2.9-2.4-3.6
	c-1.1-0.9-3-1.4-4.6-1c-0.4,0.1-1,0.6-1.5,0.5c-0.4,0-1.2-0.7-1.6-1c-0.6-0.4-1.1-0.8-1.4-1.2c-1.1-0.8-2.3-1.7-2.5-2.7
	c0.9-0.4,2-0.3,3.1-0.4c0.4-0.1,1-0.2,1.4-0.2c0.6-0.1,1.1-0.3,1.5-0.3c0.5,0.1,1.2,0.5,1.8,0.7c1.9,0.6,4.8,1,6.4,0.1
	c0.6-0.4,1.6-1.4,1.8-2.2c0.3-0.9,0.1-2.1-0.1-2.8c-0.3-1.3-1-2.4-1.9-2.9c-1-0.6-2.5-0.5-3.7-0.1c-1.6,0.4-2.8,1.3-3.8,2.3
	c-0.6,0.5-0.9,1.2-1.5,1.5c-0.6,0.3-1.5,0.4-2.3,0.7c-1.6,0.5-3.2,0.7-4.9,1c-0.9,0.2-1.7,0.4-2.5,0.2c-0.1-0.5,0.3-0.9,0.5-1.2
	c0.7-1.1,1.4-2,2.4-3c0.7-0.8,1.9-1.7,2.8-2.4c0.4-0.3,0.9-0.7,1.2-0.7c0.4,0,0.9,0.2,1.3,0.3c4.5,0.6,7.8-3.4,7.3-7.4
	c-0.4-2.9-3.2-5.3-6-5.3c-3.5-0.1-6.5,2.5-6.6,5.9c0,2,0.8,3.3,1.7,5.2c-1,1.2-2.5,2-3.7,3.2c-1.2,1.2-2.2,2.5-3,4.1
	c-0.2,0.5-0.4,1.5-0.8,1.6c-0.5,0.2-1.9,0-2.4,0c-0.8,0-1.7-0.1-2.5-0.2c-1.7-0.2-3.5-0.3-4.7-0.9c0.3-1.2,0.7-2,1.2-3.1
	c0.4-0.9,1-2.2,2.1-2.2c0.6,0,1.2,0.4,1.7,0.6c1.8,0.5,3.7,0.3,5.2-0.5c0.8-0.5,1.8-1.3,2.3-1.9c1.6-2.2,0.6-6-1.5-7.5
	c-2.2-1.7-5.9-1-7.9,0.4c-0.8,0.6-1.6,1.7-1.8,2.9c-0.2,1.7,0.6,3.1,0.4,4.7c-0.2,1.4-1.2,2.6-2,3.5c-0.8,1.1-1.5,2-2.8,2.6
	c-1.4-0.6-3-1.1-4.3-1.7c-0.4-0.2-1-0.4-1.2-0.7c0-0.6,0.4-0.8,0.6-1.3c0.5-1.5,0.3-3.6,0-5.2c-0.1-0.6-0.4-1.2-0.4-1.7
	c0-1.6,0.8-4.1,2.2-4.4c0.6-0.2,1.3,0.1,1.8,0.1c2.6,0.2,4.8-0.5,6.9-1.1c2-0.7,3.9-1.7,6.2-2.1c1.1-0.3,2.2,0,3.3,0.1
	c3.5,0.3,8.5-0.4,8.4-4.4c0-1.9-1-2.8-2-3.9c-0.7-0.7-1.5-1.6-2.1-2c-0.8-0.5-2.4-1.1-3.5-0.6c-3.5,1.7-3.6,6.2-6.7,8.6
	c-2.1,1.6-5.2,2.8-8.8,2.3c-0.9-0.1-2.2-0.3-2.4-1.4c0.6-0.6,1.5-0.8,2.2-1.2c1.8-1.2,4.2-3.4,4.1-6.2c-0.1-2.3-1.9-4.2-3.8-5
	c-3.7-1.3-7.9,1-7.9,4.5c0,2.7,0.8,4.4,1.8,5.8c0.2,0.3,0.5,0.6,0.6,0.9c0.1,0.3,0,1,0,1.6c0.2,2.3-0.5,3.4-1.5,4.6
	c-0.5,0.7-1.3,1.8-1.8,1.8c-0.4,0-1.3-1.2-1.6-1.5c-0.6-0.5-1.4-1-1.5-1.7c0-0.2,0.2-0.6,0.3-1c0.3-0.9,0.5-2.3,0.5-3.3
	c0-0.8,0-1.9-0.2-2.8c-0.5-1.8-3.1-3.6-5.1-3.7c-2-0.2-3.5,0.8-4.5,2c-1,1.2-1.8,3.6-1.4,5.6c0.2,0.7,0.6,1.2,1,1.7
	c1.1,1.2,2.6,1.8,4.5,2.3c2.9,0.8,5.1,1.8,6.9,3.7c0.7,0.7,1.9,2,1.9,3.4c0.1,1.9-1,2.5-2.2,3.3c-6.3-3.9-11.1-9.4-14.6-16
	c-1.2-2.2-2.3-4.6-3-7.2c0.8-0.5,1.7-0.7,2.6-1c2.3-0.8,4.4-1.8,6.8-2.3c1.3-0.2,2.6-0.7,4-1c2.1-0.5,4.5-1,6.5-1.4
	c0.5-0.1,1-0.1,1.5-0.2c0.4-0.1,0.7-0.3,1.1-0.4c0.4-0.1,0.9-0.1,1.4-0.1c0.4-0.1,0.8-0.3,1.2-0.4c0.4-0.1,0.9,0,1.4-0.1
	c0.4-0.1,0.9-0.3,1.3-0.4c1.6-0.4,2.8-0.9,4.1-1.4c1.1-0.5,2.2-0.9,3.2-1.2c0.2-0.1,0.4-0.2,0.6-0.4c0.5-0.2,0.9-0.3,1.3-0.5
	c1.6-0.8,3.2-1.6,4.8-2.4c1.2-0.6,2.4-1.4,3.5-1.9c0.9-0.4,1.8-0.6,2.2-1.5c1.4,1.5,3.3,2.7,5.7,3.4c2.4,0.6,5.2,0.8,7.8,1.1
	c0.2,0.9,1,1.3,1.3,2c0.8,1.4,1.6,2.7,2.6,4c0.5,0.6,1,1.2,1.5,1.8c0.5,0.5,1,1.4,1.8,1.5c-1.4-4.5,0.2-9.5,1.9-13.2
	c1.2-2.6,2.5-5,4.2-7c0.3-0.3,0.6-0.7,0.6-1.1c-1.2,0-2.3,0.5-3.4,0.9c-1,0.4-2.1,0.9-3.1,1.4c-1.5,0.8-2.6,1.9-3.4,3.3
	c-0.2,0.5-0.4,1.2-0.9,1.2c0.3-1.2,0.9-2.1,1.1-3.5c-1.9,0.4-2.6,2.3-3.4,3.9c-0.2,0.2,0,0.8-0.3,0.8c-0.1-0.8,0.3-1.3,0.5-1.9
	c0.2-0.5,0.6-1,0.6-1.6c-1.2,0.2-2.6,0.6-4.1,0.7c-2.4,0.2-4.8,0.3-6.1-0.9c6.8-5.2,12.7-11.2,17.2-18.6c2.2-3.7,4.5-7.4,7.5-10.4
	c2.9-3.1,6.1-5.8,9.9-8.1c2.4-1.5,5.2-2.8,8.1-3.9c1.4-0.6,3-1,4.6-1.4c1.6-0.3,3.2-0.9,5-0.8c0.4,0.8,0.7,1.7,0.6,2.9
	c-0.2,1.2-0.9,2-1.8,2.5c-1,0.6-2.2,1.1-3.4,1.3c-1.6,0.4-3.6,0.5-5.3,0.2c-0.7,0-1.3-0.4-2-0.5c-2.1-0.3-4.2-0.1-5.5,0.7
	c-2.5,1.6-3.1,6.5-1,9.2c0.8,0.4,1.4,1.2,2.4,1.5c1.9,0.6,4,0.1,5.6-0.7c1.3-1.3,2.2-3.1,2.9-5.2c0.1-0.3,0.3-0.7,0.3-1
	c0.1-0.5,0-0.9,0.2-1.2c0.4-0.6,1.8-0.6,2.3-0.9c0.6-0.3,1.1-0.6,1.9-0.7c0.4,0.6,0.6,1.4,0.8,2.2c0.2,0.8,0.4,1.8,0.4,2.6
	c0,1.5-0.5,2-1,3c-0.4,0.5-0.6,1.2-0.9,1.5c-0.4,0.3-1,0.3-1.3,0.6c-1.6,1-3.6,3.4-4,5.4c-0.4,1.9,0.5,3.3,1.5,4.4
	c0.4,0.5,1.3,1.2,1.8,1.5c1.2,0.7,3.6,0.9,5,0.4c1.5-0.6,2.7-1.6,3.5-3.1c1.3-3.2-0.3-6.9-1.1-9.6c-0.4-0.4-0.8-1.1-0.7-1.8
	c2.1,0.8,3.2,1.7,4.7,2.8c0.1,0.1,0.4,0.2,0.6,0.3c2.5,2.2,4.7,4.7,4.9,9.2c0.1,2.5,0.1,4.8,1.2,6.3c0.3,0.4,0.9,0.9,1.2,1.1
	c1.3,0.7,3.4,0.2,4.6-0.3c2.3-0.8,4.4-1.9,5-4.1c0-0.6,0-1.7-0.2-2.1c-0.3-0.9-0.9-1.5-1.5-2.1c-1.5-1.4-3.5-2.3-5.5-3.1
	c-0.6-0.3-1.2-0.3-1.7-0.6c-0.4-0.2-0.9-0.6-1.3-0.9c-0.4-0.3-0.8-0.7-1.2-1.1c-2.2-2.3-4.5-4.8-7.2-6.3c-0.6-0.4-1.3-0.7-2-1
	c-0.8-0.3-1.6-0.5-2-1.1c-0.7-1.2-0.2-3.4,0.2-4.5c0.3-0.5,0.8-1.2,1.2-1.7c0.8-1.2,1.7-2.4,2.1-3.8c0.3-0.8,0.1-1.7,0.3-2.5
	c1.9-0.3,4.5,0.3,6.2,0.3c1.1,1.7,1.8,3.5,1.8,5.9c0,0.8,0.1,1.6-0.2,2.3c-0.2,0.8-0.9,1.5-1.4,2.2c-0.4,0.7-1,1.6-1.1,2.4
	c-0.2,1.2,0.1,2.1,0.5,2.8c0.6,1.1,1.2,1.6,2.2,2.5c1.4,1.1,3.3,2.1,5.5,1.7c0.9-0.2,2.1-1,2.7-1.7c0.9-1.1,1.8-2.7,1.8-4.1
	c0-1.1-0.5-2.2-1.1-3c-1-1.6-2.5-2.6-4.3-3.1c-0.6-0.2-1.3-0.2-2.3-0.2c-0.9-0.1-1.2-1.9-1.2-3.2c0-1.3-0.1-3,0.6-3.5
	c2.7,0.5,5,1.6,7.3,2.5c0.7,0.3,2.1,0.6,2.2,1.2c0.1,0.4-0.2,1-0.3,1.3c-0.3,1.7-0.1,3.7,0.3,5.5c0.1,0.7,0.3,1.7,0.5,2.6
	c0.2,1,0.7,2,0.6,2.5c-0.1,0.5-0.8,0.8-0.9,1c-0.4,0.4-0.7,0.8-0.8,1.2c-2.8,4.3,0.4,9.1,4.1,10.1c2.3,0.6,4.4-0.3,5.7-1.3
	c1.9-1.5,3.3-4.8,1.9-7.6c-0.1-0.2-0.1-0.5-0.3-0.7c-0.4-0.8-0.9-1.4-1.6-2c-0.3-0.2-0.7-0.6-1-0.7c-0.8-0.5-1.7-0.5-2.5-0.9
	c-0.4-0.1-0.5-0.5-0.8-1.1c-0.6-1.1-1.2-2.5-1.6-3.5c-0.3-0.8-0.6-1.7-0.8-2.6c-0.2-0.9-0.6-2,0-2.7c0.8,0.4,1.5,0.9,2.3,1.4
	c1.5,0.9,2.7,1.9,4.1,3.2c0.7,0.6,1.8,1.3,2,1.9c0.2,0.9,0.3,1.8,0.7,2.6c0.1,0.3,0.5,0.6,0.7,0.9c0.9,1.3,2,2.6,3.4,3.2
	c1.9,0.8,3.1,0,4.3-1c0.7-0.7,1.3-1.4,1.5-2.1c0.8-1.9,0.1-3.4-1.1-4.7c-1.9-1.3-4.3-2.1-7.3-2.2c-1.4-0.8-2.7-1.9-4.2-2.7
	c-0.5-0.3-0.9-0.3-0.9-0.8C592.9,377.4,593.7,377.3,594.3,377.2z M387.7,461.7c-0.3,6.4,0.2,12.7-0.3,19c-0.2,3.2,0.1,6.3-0.1,9.4
	c-0.1,1.4-0.3,3-0.3,4.6c-0.1,1.5-0.1,3.1-0.5,4.5c-0.7-0.5-0.7-1.4-0.8-2.1c-0.2-0.8-0.2-1.8-0.3-2.6c-0.3-1.6-0.4-3.5-0.6-5.2
	c-0.3-3.5-0.6-7.1-1-10.7c-0.6-7.1-1-14.2-1.5-21.2c-0.2-2.3,0.2-4.7,0.4-7c0.1-3.6,0.3-6.9,0.4-10.6c0.6-12.3,1.2-25.2,4-36
	c0.1-0.1,0.2-0.1,0.3-0.1h0.1c0.2,12.6,0.3,25.7,0.3,38.7C387.7,448.7,387.9,455.3,387.7,461.7z M387.4,263.3c0,0.4,0.2,1.2-0.3,1.4
	c-0.1-0.9-0.3-1.9-0.4-2.8c-0.1-1.2-0.5-2.4-0.3-3.6c0.3-2,1.1-4.3,2.1-5.5c0.5,0.4,1,0.6,1.6,0.7
	C388.6,256,387.8,259.7,387.4,263.3z M392.3,298.4c-0.6-0.2-0.5-1.1-0.6-1.6c-0.6-4.1-1-8.9-1.3-13.4c-0.6-7.3,0-14.5,0.9-21
	c0.1-0.8,0.2-1.6,0.4-2.4c0.1-0.3,0.2-0.8,0.3-1.1c0.1-0.4,0.1-0.8,0.2-1.2c0.1-0.3,0.3-0.5,0.4-0.9c0.1,0,0.1,0,0.1,0.1
	C392.9,270.6,393.2,285.3,392.3,298.4z"/>
<path id="XMLID_242_" class="st0" d="M395.6,5.8C180.5,5.8,5.5,180.7,5.5,395.7c0,215,175,389.9,390.2,389.9
	c215.2,0,390.2-174.9,390.2-389.9C785.9,180.7,610.8,5.8,395.6,5.8z M395.6,781.4c-212.8,0-385.9-173-385.9-385.6
	C9.7,183,182.8,10,395.6,10c212.8,0,386,173,386,385.7C781.6,608.4,608.5,781.4,395.6,781.4z"/>
<path id="XMLID_239_" class="st0" d="M395.6,17.1c-208.9,0-378.9,169.9-378.9,378.6c0,208.8,170,378.6,378.9,378.6
	c208.9,0,378.9-169.8,378.9-378.6C774.6,186.9,604.6,17.1,395.6,17.1z M395.6,757.3c-199.8,0-361.8-161.9-361.8-361.6
	C33.8,196,195.9,34.1,395.6,34.1c199.9,0,361.9,161.9,361.9,361.7C757.5,595.4,595.5,757.3,395.6,757.3z"/>
<path id="XMLID_235_" class="st0" d="M395.6,48.5C203.8,48.5,48.3,204,48.3,395.7c0,191.7,155.5,347.2,347.4,347.2
	c191.9,0,347.4-155.4,347.4-347.2C743.1,204,587.6,48.5,395.6,48.5z M395.7,648.7c-139.8,0-253.2-113.3-253.2-253
	c0-139.7,113.4-253,253.2-253c139.8,0,253.2,113.3,253.2,253C648.9,535.5,535.5,648.7,395.7,648.7z"/>
<path id="XMLID_232_" class="st0" d="M395.7,155.4c-132.8,0-240.5,107.6-240.5,240.3c0,132.7,107.7,240.3,240.5,240.3
	s240.4-107.6,240.4-240.3C636.1,263,528.5,155.4,395.7,155.4z M395.7,629.7c-129.3,0-234.2-104.8-234.2-234
	c0-129.3,104.8-234.1,234.2-234.1c129.3,0,234.2,104.8,234.2,234.1C629.9,524.9,525,629.7,395.7,629.7z"/>
<path id="XMLID_231_" class="st0" d="M391.3,210.2c0.7,0.5,1.4,1.4,1.3,2.5c0.3,0.6,1.3,1.1,0.9,2.3c0,0.2-0.2,0.2-0.2,0.5
	c0,0.5,0.4,0.9,0.4,1.3c0,0.7-0.6,1.2-0.7,1.6c0.1,0.9,0.5,1.6,0.2,2.4c-0.3,0.8-1.1,1-1.6,1.5c-0.1,1.5-0.7,2.3-1.7,2.8
	c-0.4,1.4-1.2,2.9-2.5,3.1c-0.9,0.1-2.6-0.6-3.9-1.2c-0.6-0.2-1.2-0.5-1.8-0.8c-2-1-3.1-2.2-4.1-4.4c-0.4-1-1.1-2.2-1.1-3
	c0-0.9,0.8-1.3,1.6-1.6c0.3-1.1,0.8-2.2,2.3-2.1c0.9-1,0.9-2.9,3.1-2.7c0.5-0.6,0.7-1.6,1.4-1.9c0.8-0.1,1.3,0.2,1.9,0.1
	c0.6-0.1,0.9-0.7,1.4-0.7c0.5,0,0.6,0.3,1.3,0.6C390,210.4,390.7,210.4,391.3,210.2z"/>
<path id="XMLID_230_" class="st0" d="M374.7,221.9c0.1,0,0.1,0.1,0.2,0.1c2.4,3.8,5.2,7.6,11,7.8c0,0.5-0.7,0.7-1.2,0.9
	c-1.5,0.8-3.2,1.6-5.2,1.9c-0.7,0.1-1,0.7-1.9,0.7c-0.9-0.1-1.9-0.7-2.5-1.2c-0.2-0.2-0.6-0.4-0.7-0.5c-0.7-0.8-0.9-2.2-0.6-3.4
	c0.3-0.1,0.5,0.3,0.6,0.5c0.5,0.6,0.9,1.6,1.7,1.9c-0.2-1.2-1.7-2.2-1.9-3.8c-0.2-1.6,0.4-3,0.4-4.7
	C374.5,221.9,374.7,222,374.7,221.9z"/>
<path id="XMLID_229_" class="st0" d="M453.1,264.8c1.3-0.1,1.9,0.4,1.9,1.5c1,0.6,2.1,1.2,1.9,2.6c-0.1,0.9-1.1,1.5-1.6,2
	c-0.4,0.5-0.6,1.2-1.1,1.8c-0.2,0.3-0.6,0.6-0.8,0.8c-0.2,0.3-0.5,0.7-0.7,0.9c-0.2,0.2-0.5,0.2-0.7,0.3c-0.2,0.2-0.4,0.4-0.7,0.6
	c-0.7,0.6-1.5,1.2-2.3,1.8c-0.6,0.1-1,0.3-1.4,0.6c-0.9,0-1.3,0.4-1.9,0.6c-0.8-0.4-1.7-0.6-1.6-1.8c-0.4-0.5-1-0.6-1.3-1.1
	c-0.1-0.3-0.1-0.7-0.3-1c-0.4-0.8-1.1-1-1.1-2.1c0-0.2,0.2-0.6,0.1-0.8c-0.2-0.6-1.2-0.9-1.3-1.5c0.1-0.7,0.4-1.1,0.7-1.6
	c-0.4-1.1,0.2-1.8,0.8-2.4c0-0.7,0.3-1.1,0.3-1.8c0.4,0,0.4-0.5,0.7-0.6c0.1-0.1,0.5,0,0.8,0c0.2-0.1,0.4-0.2,0.6-0.3
	c0.2-0.1,0.5,0.1,0.7,0c0.7-0.2,1.1-0.9,1.7-0.9c0.3,0,0.5,0.2,0.8,0.2c0.6,0,1-0.3,1.3-0.3c0.4,0,0.8,0.4,1.2,0.5
	c0.6,0.1,1.1-0.1,1.9-0.1C452.4,263.3,452.7,264,453.1,264.8z"/>
<path id="XMLID_228_" class="st0" d="M258.6,347.2c0.3,0.9,1,1.9,1.2,3c0.3,2.5-1.2,3-3,3.8c-1,0.5-1.8,0.9-2.7,1.2
	c-1.7,0.7-4.4,1.6-6.2,1.8c-2.9,0.2-5.2-0.4-7.1-0.9c-0.5-0.8-1.2-1.3-1.2-2.3c0-0.5,0.4-0.9,0.4-1.4c0-0.7-0.7-1.4-0.7-2
	c-0.1-0.9,0.4-1.6,0.4-2.5c0-0.9-0.4-1.8-0.3-2.8c0-0.2,0.1-0.4,0.2-0.6c0.1-0.5,0.5-0.8,0.6-1.3c0.1-0.8-0.8-1.8-0.7-2.6
	c0.1-1,1.7-1.5,2.2-2.3c-0.1-1,0.2-1.8,0.9-2.1c0.2-0.1,0.6,0,0.9-0.2c0.6-0.3,0.9-1.4,1.4-1.9c1-0.8,3-0.1,3.9,0.7
	c0.6,0.1,1.4-0.1,2.1,0.1c0.5,0.2,0.7,1,1.3,1.4c0.5,0.3,1.3,0.3,1.7,0.7c0.3,0.3,0.5,0.9,0.7,1.3c1.1,1.3,2.6,1.5,2.9,3.4
	c0.1,0.6-0.2,1.3-0.1,1.8c0.1,0.5,0.6,0.7,1,1.1C259,345.3,259.2,346.2,258.6,347.2z"/>
<path id="XMLID_227_" class="st0" d="M538.1,413c0.7,0,1.9-0.1,2.5,0.3c0.3,0.2,0.4,0.6,0.7,0.9c0.2,0.2,0.6,0.6,0.8,0.7
	c0.4,0.2,1.1,0.2,1.4,0.3c0.3,0.1,1.2,0.7,1.4,0.9c0.4,0.4,0.4,0.9,0.6,1.3c0.9,0.4,2.5,0.2,3,1c0.4,0.7,0,1.7,0.2,2.5
	c0.2,0.7,1.3,0.9,1.4,1.6c0.2,0.9-0.4,1.6-0.4,2.1c0.4,0.9,1,1.7,0.9,2.6c0,0.5-0.5,1.3-0.8,1.7c-0.6,0.8-1.5,1.3-2.2,1.7
	c-0.6,1.2-1,2.7-2.9,2.6c-0.7,0.5-1,1.2-1.8,1.6c-1.2-0.1-1.9,0.2-2.9,0.8c-0.6,0.3-1.1,1-2,1c-0.4,0-1.2-0.2-1.5-0.4
	c-0.4-0.2-0.7-0.8-1.1-0.9c-0.4,0-0.7,0.3-1.1,0.5c-0.8,0.3-1.6,0.3-2.2-0.3c-0.3-0.3-0.3-0.6-0.7-0.8c-0.4-0.1-0.9,0.1-1.2,0.1
	c-1.7-0.1-2.9-0.8-3.5-2c0.5-4.1,0.9-8.4,2.2-12.3c0.9-2.6,2.3-4.9,4-6.9c0.4-0.5,1.2-1.7,1.7-2c0.5-0.2,1.7-0.3,2.4-0.1
	C537.4,411.9,537.7,412.7,538.1,413z"/>
<path id="XMLID_226_" class="st0" d="M456.4,280.1c0,0,0.3-0.2,0.1-0.3C456.5,279.9,456.1,280,456.4,280.1z"/>
<path id="XMLID_225_" class="st0" d="M455.3,280.7c0.3,0,0.5,0,0.5-0.3C455.5,280.5,455.3,280.5,455.3,280.7z"/>
<path id="XMLID_224_" class="st0" d="M250.6,367.4c0.1,0.2,0.7,0.1,0.7-0.1C251,367.4,250.7,367,250.6,367.4z"/>
<g id="XMLID_208_">
	<g id="XMLID_219_">
		<polygon id="XMLID_223_" class="st0" points="104.9,471.2 120.4,471.2 112.7,495.3 		"/>
		<polygon id="XMLID_222_" class="st0" points="120.4,519.5 104.9,519.5 112.7,495.3 		"/>
		<polygon id="XMLID_221_" class="st0" points="88.6,503.5 88.6,488 112.7,495.7 		"/>
		<polygon id="XMLID_220_" class="st0" points="136.8,488 136.8,503.5 112.7,495.7 		"/>
	</g>
	<g id="XMLID_214_">
		<polygon id="XMLID_218_" class="st0" points="671,470.6 686.5,470.6 678.7,494.8 		"/>
		<polygon id="XMLID_217_" class="st0" points="686.5,518.9 671,518.9 678.7,494.8 		"/>
		<polygon id="XMLID_216_" class="st0" points="654.6,502.9 654.6,487.4 678.7,495.1 		"/>
		<polygon id="XMLID_215_" class="st0" points="702.8,487.4 702.8,502.9 678.7,495.1 		"/>
	</g>
	<g id="XMLID_209_">
		<polygon id="XMLID_213_" class="st0" points="388.3,71.6 403.8,71.6 396,95.8 		"/>
		<polygon id="XMLID_212_" class="st0" points="403.8,119.9 388.3,119.9 396,95.8 		"/>
		<polygon id="XMLID_211_" class="st0" points="371.9,103.9 371.9,88.4 396,96.1 		"/>
		<polygon id="XMLID_210_" class="st0" points="420.1,88.4 420.1,103.9 396,96.1 		"/>
	</g>
</g>
<g id="XMLID_155_">
	<polygon id="XMLID_207_" class="st1" points="197.3,593.6 215.7,609.5 220,604.5 196.9,584.6 160.2,627.1 183.5,647.2 187.8,642.2 
		169.2,626.1 181.7,611.7 198.9,626.6 203.2,621.6 186,606.7 	"/>
	<polygon id="XMLID_206_" class="st1" points="262.4,633 227.6,663.8 239.8,619 233.3,614.9 203.5,662.5 208.8,665.8 230.2,631.5 
		219.1,672.3 223.6,675.1 255.3,647.2 233.9,681.5 239.1,684.8 268.9,637.1 	"/>
	<path id="XMLID_203_" class="st1" d="M308.5,655.3c-1.3-1.3-2.8-2.3-4.7-3l-17.9-7l-20.1,51.3l-0.4,1l5.7,2.2l8.4-21.5l12.2,4.8
		c1.8,0.7,3.8,1,5.5,0.9c1.8-0.1,3.5-0.6,5.2-1.6c1.6-0.9,3.1-2.3,4.4-3.9c1.3-1.7,2.4-3.7,3.3-6c0.9-2.4,1.5-4.6,1.7-6.7
		c0.2-2.1,0-4.1-0.6-5.9C310.6,658.2,309.7,656.6,308.5,655.3z M300.6,658.1c2.2,0.9,3.7,2.3,4.5,4.3c0.8,2,0.5,4.7-0.7,7.8
		c-1.3,3.2-2.9,5.3-4.8,6.2c-1.9,0.9-4,1-6.2,0.1l-11.4-4.5l7.2-18.4L300.6,658.1z"/>
	<path id="XMLID_200_" class="st1" d="M359.9,670.4c-1-1.4-2.2-2.6-3.8-3.5c-1.5-0.9-3.1-1.5-4.9-1.8l-19.5-3.5l-10,55.3l6,1.1
		l4.3-23.6l13.5,2.5c1.5,0.2,2.6,0.7,3.3,1.5c0.7,0.9,1.2,2.1,1.5,3.5c0.3,1.5,0.3,3.1,0.2,4.9c-0.2,1.9-0.4,3.8-0.6,5.7
		c-0.1,0.5-0.1,1.2-0.2,1.9c-0.1,0.8-0.2,1.5-0.3,2.3c-0.1,0.8-0.1,1.6-0.1,2.4c0,0.8,0.1,1.5,0.2,2.2l0.2,0.7l7,1.3l-0.8-1.9
		c-0.2-0.6-0.4-1.4-0.4-2.5c0-1.2,0-2.4,0.1-3.7c0.1-1.3,0.3-2.6,0.5-3.9c0.2-1.3,0.4-2.4,0.5-3.3c0.2-1.7,0.3-3.2,0.3-4.7
		c0-1.5-0.2-2.9-0.6-4.2c-0.4-1.3-1-2.4-1.9-3.4c-0.3-0.3-0.6-0.6-0.9-0.9c1.8-0.7,3.4-1.8,4.7-3.5c1.9-2.4,3.1-5.4,3.8-8.9
		c0.4-2.5,0.5-4.8,0.1-6.8C361.6,673.6,360.9,671.8,359.9,670.4z M349.7,671.5c2.6,0.5,4.3,1.6,5.2,3.4c1,1.9,1.2,4.4,0.6,7.4
		c-0.3,1.5-0.7,2.8-1.4,3.8c-0.7,1.1-1.4,1.9-2.2,2.6c-0.8,0.7-1.7,1.1-2.7,1.3c-1,0.2-2,0.3-3,0.1l-13.2-2.4l3.4-18.7L349.7,671.5z
		"/>
	<polygon id="XMLID_199_" class="st1" points="382,722.7 382,723.8 412.7,725.1 413,718.5 388.4,717.5 389.1,698.4 411.9,699.3 
		412.2,692.7 389.4,691.8 390.1,674.6 414.4,675.5 414.7,668.9 384.2,667.7 	"/>
	<polygon id="XMLID_198_" class="st1" points="456.3,661.5 464.3,703.1 434.6,665.6 428.6,666.8 439.1,722 445.1,720.8 437.2,679.2 
		466.9,716.7 472.9,715.5 462.4,660.3 	"/>
	<path id="XMLID_195_" class="st1" d="M511.4,650.9c-4.8-3.1-10.4-3.6-16.6-1.4l-14.2,5.6l20.5,52.3l14.2-5.6
		c6-2.6,9.8-6.7,11.2-12.3c1.4-5.5,0.4-12.5-3-21.1C520.2,659.9,516.1,654,511.4,650.9z M504.3,699l-15.7-40l6.7-2.6
		c5.1-2,9.2-2.1,12.8,0.1c1.8,1.1,3.5,2.8,5,5.1c1.6,2.4,3.2,5.4,4.6,9.1c1.4,3.7,2.4,7,2.8,9.7c0.4,2.7,0.3,5.2-0.2,7.2
		c-0.6,2-1.6,3.7-3.1,5.1c-1.5,1.4-3.7,2.7-6.2,3.7L504.3,699z"/>
	<polygon id="XMLID_194_" class="st1" points="559.7,673 549.6,656.9 568.9,644.8 565.3,639.2 546,651.3 536.9,636.7 557.5,623.7 
		553.9,618.1 528.1,634.3 557.4,681 558,681.9 584.1,665.5 580.6,659.9 	"/>
	<path id="XMLID_191_" class="st1" d="M626.8,623.1c-0.9-0.7-1.9-1.4-2.9-2.3c-1-0.9-1.9-1.8-2.8-2.7l-0.3-0.3c-0.8-0.8-1.5-1.5-2-2
		c-1.2-1.1-2.3-2.1-3.5-3c-1.2-0.9-2.5-1.6-3.7-2c-1.3-0.4-2.5-0.6-3.8-0.5c-0.4,0-0.8,0.1-1.2,0.2c0.5-1.9,0.5-3.8,0-5.9
		c-0.8-2.9-2.5-5.7-4.9-8.3c-1.8-1.9-3.6-3.2-5.4-4.1c-1.9-0.9-3.7-1.4-5.4-1.5l-0.4,0c-1.6,0-3.2,0.3-4.7,1
		c-1.6,0.7-3.1,1.7-4.4,2.9l-14.4,13.6l38.6,40.9l4.5-4.2l-16.4-17.4l10-9.4c1.1-1.1,2.1-1.7,3.2-1.7l0.3,0c1.1,0,2.2,0.3,3.4,0.8
		c1.3,0.6,2.6,1.5,4,2.8c1.4,1.2,2.8,2.5,4.2,3.9l1.4,1.3c0.5,0.5,1.1,1.1,1.7,1.6c0.6,0.6,1.2,1.1,1.9,1.5c0.6,0.5,1.3,0.9,1.9,1.1
		l0.7,0.3l5.2-4.9l-2-0.5C628.5,624.1,627.7,623.7,626.8,623.1z M600.8,607.9c0,1-0.1,2-0.5,2.9c-0.4,1-1,1.8-1.7,2.5l-9.7,9.2
		l-13-13.8l9.8-9.2c1.9-1.8,3.9-2.5,5.8-2.2c2.1,0.4,4.2,1.7,6.3,3.9c1,1.1,1.8,2.2,2.3,3.4C600.5,605.8,600.8,606.9,600.8,607.9z"
		/>
	<path id="XMLID_190_" class="st1" d="M127.2,318.4c-1.5-1.9-3.3-3.5-5.6-4.9c-2.2-1.4-4.8-2.5-7.8-3.4l-1.2-0.3l-1.1,6l1,0.3
		c2,0.5,3.8,1.3,5.4,2.3c1.6,1,2.9,2.1,4,3.3c1.1,1.2,1.8,2.6,2.3,4.1c0.4,1.5,0.5,3.1,0.2,4.7c-0.5,2.5-1.4,4.5-2.8,6
		c-1.4,1.6-3.2,2.7-5.2,3.5c-2.1,0.8-4.4,1.3-6.8,1.4c-2.5,0.1-5-0.1-7.4-0.5c-2.5-0.5-4.9-1.2-7.2-2.2c-2.2-1-4.2-2.3-5.8-3.7
		c-1.6-1.5-2.8-3.2-3.5-5.2c-0.7-1.9-0.9-4.1-0.4-6.6c0.3-1.3,0.7-2.6,1.4-3.7c0.7-1.1,1.6-2.1,2.6-2.9c1.1-0.8,2.3-1.5,3.8-1.9
		c1.4-0.5,3-0.7,4.8-0.7l0.9,0l1.1-6l-1.2-0.1c-2.6-0.2-5.1,0-7.3,0.7c-2.2,0.7-4.1,1.7-5.8,3c-1.7,1.3-3.1,2.9-4.1,4.7
		c-1.1,1.8-1.8,3.7-2.2,5.8c-0.6,3.3-0.5,6.4,0.5,9.2c1,2.8,2.5,5.3,4.5,7.4c2,2.1,4.5,3.8,7.4,5.2c2.9,1.4,6,2.4,9.3,3
		c2.4,0.5,4.8,0.7,7.2,0.7c0.9,0,1.7,0,2.6-0.1c3.2-0.2,6.2-1,8.8-2.2c2.7-1.2,5-3,6.9-5.2c1.9-2.3,3.2-5.1,3.8-8.4
		c0.5-2.5,0.4-4.9-0.1-7.2C129.6,322.4,128.6,320.3,127.2,318.4z"/>
	<path id="XMLID_187_" class="st1" d="M148.1,264.1c-1-0.2-2.1-0.4-3.1-0.8c-1.1-0.4-2.2-0.7-3.4-1.2c-1-0.4-1.9-0.7-2.6-1
		c-1.4-0.5-2.8-0.9-4-1.2c-1.4-0.3-2.7-0.3-3.8-0.2c-1.2,0.2-2.4,0.6-3.4,1.2c-0.3,0.2-0.5,0.3-0.7,0.5c-0.2-1.8-0.8-3.4-1.9-4.9
		c-1.6-2.3-4-4-7-5.3c-4.2-1.8-8.1-1.7-11.1-0.3c-1.5,0.7-2.8,1.7-4,3c-1.1,1.3-2,2.7-2.7,4.4l-7.7,18.3l46.1,19.6l2.4-5.6
		l-19.5-8.3l5.4-12.6c0.5-1.4,1.3-2.4,2.2-3c1-0.5,2-0.8,3.3-0.8h0c1.3,0,2.8,0.2,4.2,0.7c1.6,0.5,3.2,1,4.8,1.6l1.6,0.6
		c0.6,0.2,1.3,0.5,2,0.7c0.7,0.2,1.4,0.4,2.1,0.6c0.7,0.2,1.4,0.2,2,0.2l0.7,0l2.8-6.6l-2.1,0.5
		C149.7,264.3,148.9,264.2,148.1,264.1z M100.5,273.6l5.2-12.3c1-2.4,2.4-3.9,4.2-4.5c1.9-0.6,4-0.4,6.5,0.7
		c1.2,0.5,2.2,1.2,2.9,1.9c0.8,0.8,1.3,1.6,1.7,2.5c0.4,0.9,0.5,1.9,0.5,2.9c0,1-0.2,2-0.7,2.9l-5.2,12.4L100.5,273.6z"/>
	<polygon id="XMLID_186_" class="st1" points="178.6,223.4 173.6,219.9 159.5,240 145.8,230.5 158.9,211.8 153.9,208.3 140.8,227 
		128.5,218.4 142.5,198.4 137.4,194.9 120,219.9 161,248.6 	"/>
	<polygon id="XMLID_185_" class="st1" points="212.8,188.9 208.6,184.4 190.7,201.2 179.3,189 195.9,173.5 191.8,169 175.1,184.6 
		164.9,173.6 182.6,157 178.5,152.5 156.2,173.3 190.4,209.9 	"/>
	<path id="XMLID_182_" class="st1" d="M232.5,175l-11-18.1l11.7-7.1c1.3-0.9,2.4-1.3,3.5-1.1c1.1,0.1,2.2,0.5,3.2,1.3
		c1.1,0.8,2.1,1.8,3,3c1,1.3,2,2.7,2.9,4.1l1,1.4c0.4,0.6,0.8,1.1,1.2,1.7c0.4,0.6,0.9,1.2,1.4,1.7c0.6,0.6,1.1,1,1.6,1.3l0.6,0.3
		l6.1-3.7l-2-0.9c-0.5-0.2-1.1-0.7-1.8-1.3c-0.7-0.7-1.3-1.4-2.1-2.4c-0.7-0.9-1.4-1.9-2-2.8c-0.6-1-1.2-1.8-1.6-2.5
		c-0.8-1.2-1.7-2.3-2.6-3.3c-0.9-1-1.9-1.8-3-2.4c-1.1-0.6-2.3-0.9-3.5-1l-0.4,0c-0.2,0-0.4,0-0.5,0c0.9-1.5,1.3-3.2,1.3-5.1
		c0-2.8-0.9-5.6-2.5-8.4c-1.2-1.9-2.5-3.5-4.1-4.6c-1.5-1.1-3.1-1.8-4.8-2.1c-1.6-0.3-3.3-0.3-5,0.1c-1.7,0.4-3.3,1.1-4.8,2
		l-17,10.3l25.9,42.8L232.5,175z M209.7,137.5l11.5-7c2.3-1.4,4.3-1.8,6.1-1.2c1.9,0.6,3.5,2.1,4.9,4.3c0.7,1.1,1.1,2.2,1.3,3.3
		c0.2,1.1,0.1,2.1-0.1,3c-0.2,0.9-0.7,1.8-1.2,2.6c-0.6,0.8-1.4,1.5-2.3,2l-11.5,7L209.7,137.5z"/>
	<path id="XMLID_181_" class="st1" d="M554.2,174.7c2.2,1.3,4.5,2,6.9,2.2c0.4,0,0.8,0,1.1,0c2,0,3.9-0.4,5.9-1.1
		c2.3-0.9,4.6-2.2,6.7-4.1c2.2-1.8,4.2-4.1,6.1-6.8l0.7-1l-5.3-3.1l-0.6,0.8c-1.3,1.8-2.7,3.4-4.3,4.8c-1.6,1.3-3.1,2.3-4.7,3
		c-1.5,0.7-3,1-4.8,1h0c-1.6,0-3-0.4-4.6-1.3c-2.1-1.3-3.7-2.9-4.6-4.8c-0.9-1.9-1.4-4.1-1.4-6.4c0-2.3,0.5-4.8,1.3-7.4
		c0.9-2.6,2-5.1,3.4-7.4c1.4-2.4,3.1-4.6,4.9-6.6c1.8-2,3.8-3.5,5.8-4.7c2-1.1,4.1-1.8,6.3-1.9c2.2-0.1,4.2,0.4,6.4,1.7
		c1.2,0.7,2.1,1.6,2.9,2.6c0.8,1.1,1.4,2.3,1.8,3.6c0.4,1.4,0.5,2.9,0.4,4.5c-0.1,1.7-0.5,3.4-1.2,5.2l-0.3,0.9l5.2,3.1l0.5-1.1
		c1.2-2.6,1.9-5.1,2.1-7.6c0.2-2.4,0-4.7-0.6-6.9c-0.6-2.1-1.6-4.1-2.9-5.7c-1.3-1.7-2.9-3.1-4.7-4.1c-2.8-1.7-5.8-2.5-9-2.5h0
		c-3,0.1-5.9,0.8-8.7,2.2c-2.7,1.4-5.4,3.4-7.8,5.9c-2.4,2.5-4.6,5.3-6.4,8.5c-1.9,3.2-3.3,6.4-4.3,9.7c-1,3.3-1.4,6.6-1.3,9.6
		c0.1,3.1,0.9,6,2.3,8.7C549.1,170.8,551.3,173,554.2,174.7z"/>
	<path id="XMLID_178_" class="st1" d="M588.5,198.6l16.2-16.6l9.8,9.6c1.2,1,1.8,2.1,1.9,3.1c0.1,1.1-0.1,2.4-0.6,3.6
		c-0.6,1.4-1.4,2.7-2.5,4c-1.1,1.4-2.3,2.8-3.6,4.2l-1.2,1.4c-0.4,0.5-0.8,1-1.3,1.4l-0.2,0.3c-0.5,0.6-1,1.2-1.4,1.9
		c-0.5,0.7-0.8,1.3-1,1.9l-0.2,0.7l5.1,5l0.4-2.1c0.1-0.6,0.4-1.3,1-2.2c0.6-1,1.3-1.9,2.1-2.9c0.8-1,1.6-1.9,2.5-2.8l0.6-0.6
		c0.6-0.7,1.2-1.3,1.6-1.8c1.1-1.2,2-2.4,2.8-3.6c0.8-1.2,1.4-2.5,1.8-3.7c0.4-1.3,0.4-2.5,0.3-3.8c-0.1-0.4-0.2-0.8-0.3-1.1
		c1.8,0.5,3.7,0.4,5.7-0.2c2.8-0.9,5.5-2.6,7.9-5.1c1.7-1.7,3-3.6,3.8-5.4c0.8-1.9,1.2-3.7,1.1-5.4c0-1.7-0.4-3.4-1.2-5
		c-0.8-1.5-1.8-3-3.1-4.2l-14.2-13.9l-38,38.9L588.5,198.6z M609.2,177.4l12.8-13.1l9.6,9.4c1.9,1.8,2.7,3.7,2.5,5.7
		c-0.2,2.1-1.4,4.2-3.4,6.3c-1,1-2.1,1.8-3.2,2.3c-1.1,0.5-2.1,0.8-3.2,0.8l-0.4,0c-0.9,0-1.7-0.2-2.5-0.5c-0.9-0.3-1.8-0.9-2.5-1.6
		L609.2,177.4z"/>
	<polygon id="XMLID_177_" class="st1" points="644.1,224.1 656.4,243.2 661.9,239.7 649.5,220.6 663.5,211.6 676.7,232 682.1,228.4 
		665.6,202.9 619.9,232.4 636.6,258.3 642,254.7 628.7,234.1 	"/>
	<path id="XMLID_165_" class="st1" d="M700.1,266.3l-57,2.8l2.2,6.1l16.9-1l5.9,15.9l-13.5,10.3l2.2,6.1l45.3-34.5L700.1,266.3z
		 M691.7,272.4L673.6,286l-4.5-12.3L691.7,272.4z"/>
	<path id="XMLID_156_" class="st1" d="M716.3,334.5l-2.4-19.7l-54,6.7l0.8,6.1l23-2.8l1.7,13.6c0.3,1.5,0.1,2.7-0.5,3.6
		c-0.7,1-1.5,1.8-2.7,2.4c-1.3,0.7-2.8,1.2-4.4,1.6c-1.8,0.4-3.6,0.7-5.4,1l-1.8,0.3c-0.7,0.1-1.5,0.3-2.2,0.4
		c-0.8,0.2-1.5,0.3-2.3,0.6c-0.7,0.2-1.4,0.5-2,0.9l-0.6,0.4l0.9,7.1l1.6-1.4c0.5-0.4,1.2-0.8,2.2-1.1c1-0.3,2.1-0.7,3.4-1
		c1.3-0.3,2.5-0.5,3.7-0.7l3.2-0.5c1.6-0.3,3.1-0.6,4.4-1.1c1.4-0.4,2.6-1,3.7-1.8c1.1-0.8,1.9-1.7,2.6-2.8c0.2-0.3,0.4-0.7,0.5-1.1
		c1.1,1.5,2.7,2.6,4.6,3.4c2.7,1.1,5.8,1.4,9.4,1c2.4-0.3,4.6-0.9,6.3-1.9c1.8-0.9,3.2-2.1,4.2-3.5c1-1.4,1.8-2.9,2.2-4.7
		C716.4,338,716.5,336.3,716.3,334.5z M708.2,321.7l1.6,13.3c0.3,2.6-0.2,4.6-1.6,6c-1.5,1.5-3.7,2.4-6.6,2.8
		c-1.4,0.2-2.7,0.1-3.9-0.2c-1.2-0.3-2.1-0.7-3-1.3c-0.8-0.6-1.5-1.3-2-2.2c-0.5-0.9-0.8-1.8-1-2.8l-1.6-13.3L708.2,321.7z"/>
</g>
</svg>
