<?xml version="1.0" encoding="utf-8"?>
<!-- Generator: Adobe Illustrator 19.0.0, SVG Export Plug-In . SVG Version: 6.00 Build 0)  -->
<svg version="1.1" id="Capa_1" xmlns="http://www.w3.org/2000/svg" xmlns:xlink="http://www.w3.org/1999/xlink" x="0px" y="0px"
	 viewBox="0 0 595.3 841.9" style="enable-background:new 0 0 595.3 841.9;" xml:space="preserve">
<style type="text/css">
	.st0{fill:#08202B;}
	.st1{fill:#5E92CA;}
	.st2{fill:none;stroke:#F3D93B;stroke-width:5;stroke-miterlimit:10;}
	.st3{fill:#F3D93B;}
</style>
<circle id="XMLID_1970_" class="st0" cx="297.6" cy="391.7" r="212.6"/>
<g id="XMLID_1968_">
	<path id="XMLID_4_" class="st1" d="M290.9,319v136h-38.7v-97.2L227,455h-26.5l-26.1-97.2V455h-31.3V319h54.5l19.7,72.2l18.8-72.2
		H290.9z"/>
</g>
<g id="XMLID_1964_">
	<path id="XMLID_2_" class="st2" d="M425.7,454.8h-85.4c-15.6,0-28.3-12.8-28.3-28.3v-79.1c0-15.6,12.8-28.3,28.3-28.3h85.4
		c15.6,0,28.3,12.8,28.3,28.3v79.1C454,442,441.2,454.8,425.7,454.8z"/>
</g>
<g id="XMLID_1658_">
	<path id="XMLID_8_" class="st3" d="M425,415.6v-35.1c4.7-0.8,8.3-4.9,8.3-9.8c0-5.5-4.5-9.9-9.9-9.9c-2.1,0-4.1,0.7-5.7,1.8
		l-6.8-6.8c1.6-1.8,2.6-4.1,2.6-6.7c0-5.5-4.5-9.9-9.9-9.9c-4.9,0-9,3.6-9.8,8.3h-35.1c-0.8-4.7-4.9-8.3-9.8-8.3
		c-5.5,0-9.9,4.5-9.9,9.9c0,4.9,3.6,9,8.3,9.8v35.1c-4.7,0.8-8.3,4.9-8.3,9.8c0,5.5,4.5,9.9,9.9,9.9c1.7,0,3.3-0.4,4.7-1.2l7,7
		c-1.2,1.6-1.8,3.6-1.8,5.7c0,5.5,4.5,9.9,9.9,9.9c4.9,0,9-3.6,9.8-8.3h35.1c0.8,4.7,4.9,8.3,9.8,8.3c5.5,0,9.9-4.5,9.9-9.9
		C433.3,420.5,429.7,416.4,425,415.6z M417.6,417.3l-6.8-6.8c1.6-1.8,2.6-4.1,2.6-6.7c0-4.9-3.6-9-8.3-9.8v-21.7h8.4
		c0.7,4.2,4,7.4,8.1,8.1v35.1C420.2,415.9,418.8,416.5,417.6,417.3z M393.7,402.2h-23.3v-21.7c4.2-0.7,7.4-4,8.1-8.1h23.3v21.7
		C397.7,394.8,394.4,398.1,393.7,402.2z M367,415.6c-1.5,0.3-2.9,0.8-4.1,1.7l-6.8-6.8c1.2-1.4,2.1-3.1,2.4-5h8.4V415.6z
		 M358.6,402.2c-0.7-4.2-4-7.4-8.1-8.1V359c1.1-0.2,2.1-0.5,3.1-1.1l7,7c-1.2,1.6-1.8,3.6-1.8,5.7c0,4.9,3.6,9,8.3,9.8v21.7H358.6z
		 M368.7,377.4c-3.7,0-6.6-3-6.6-6.6c0-3.7,3-6.6,6.6-6.6c3.7,0,6.6,3,6.6,6.6C375.3,374.4,372.4,377.4,368.7,377.4z M403.5,397.3
		c3.7,0,6.6,3,6.6,6.6c0,3.7-3,6.6-6.6,6.6c-3.7,0-6.6-3-6.6-6.6C396.9,400.2,399.8,397.3,403.5,397.3z M405.1,359
		c1.1-0.2,2.1-0.5,3.1-1.1l7,7c-0.9,1.2-1.4,2.6-1.7,4.1h-8.4V359z M423.4,364.1c3.7,0,6.6,3,6.6,6.6c0,3.7-3,6.6-6.6,6.6
		c-3.7,0-6.6-3-6.6-6.6C416.7,367.1,419.7,364.1,423.4,364.1z M403.5,342.6c3.7,0,6.6,3,6.6,6.6c0,3.7-3,6.6-6.6,6.6
		c-3.7,0-6.6-3-6.6-6.6C396.9,345.6,399.8,342.6,403.5,342.6z M401.8,359v10.1h-23.3c-0.8-4.7-4.9-8.3-9.8-8.3
		c-2.1,0-4.1,0.7-5.7,1.8l-6.8-6.8c1.2-1.4,2.1-3.1,2.4-5h35.1C394.4,355,397.7,358.3,401.8,359z M342.2,349.2c0-3.7,3-6.6,6.6-6.6
		c3.7,0,6.6,3,6.6,6.6c0,3.7-3,6.6-6.6,6.6C345.2,355.9,342.2,352.9,342.2,349.2z M342.2,403.9c0-3.7,3-6.6,6.6-6.6
		c3.7,0,6.6,3,6.6,6.6c0,3.7-3,6.6-6.6,6.6C345.2,410.5,342.2,407.5,342.2,403.9z M368.7,432c-3.7,0-6.6-3-6.6-6.6
		c0-3.7,3-6.6,6.6-6.6c3.7,0,6.6,3,6.6,6.6C375.3,429.1,372.4,432,368.7,432z M370.4,415.6v-10.1h23.3c0.8,4.7,4.9,8.3,9.8,8.3
		c1.7,0,3.3-0.4,4.7-1.2l7,7c-0.9,1.2-1.4,2.6-1.7,4.1h-35.1C377.8,419.6,374.5,416.3,370.4,415.6z M423.4,432c-3.7,0-6.6-3-6.6-6.6
		c0-3.7,3-6.6,6.6-6.6c3.7,0,6.6,3,6.6,6.6C430,429.1,427,432,423.4,432z"/>
</g>
<g id="XMLID_1652_">
	<path id="XMLID_3_" class="st3" d="M314.6,459.1c-4.8,0-8.9-1.5-12.1-4.5c-3.2-3-4.8-6.6-4.8-11c0-4.5,1.7-8.1,5-11
		c3.3-2.9,7.5-4.3,12.4-4.3c5,0,9.1,1.4,12.3,4.3c3.2,2.9,4.8,6.5,4.8,10.9c0,4.5-1.6,8.2-4.9,11.1
		C324.1,457.7,319.8,459.1,314.6,459.1z"/>
</g>
</svg>
